<?xml version="1.0" encoding="UTF-8"?>
<svg width="87px" height="67px" viewBox="0 0 87 67" version="1.1" xmlns="http://www.w3.org/2000/svg" xmlns:xlink="http://www.w3.org/1999/xlink">
    <!-- Generator: sketchtool 50.2 (55047) - http://www.bohemiancoding.com/sketch -->
    <title>994BDECF-E68B-47EA-BE50-28205B99ED04</title>
    <desc>Created with sketchtool.</desc>
    <defs></defs>
    <g id="Page-1" stroke="none" stroke-width="1" fill="none" fill-rule="evenodd">
        <g id="hp:-government" transform="translate(-946.000000, -1607.000000)">
            <g id="hp/card-copy-3" transform="translate(840.000000, 1528.000000)">
                <g id="icon" transform="translate(105.000000, 70.000000)">
                    <rect id="Background" x="2" y="0" width="85.3300018" height="85.3300018"></rect>
                    <g id="noun_Express-Delivery_1610218" transform="translate(0.666719, 9.332969)" fill="#000000" fill-rule="nonzero">
                        <path d="M24.1190583,58.4910497 L19.9992192,58.4910497 L19.9992192,47.8247995 L17.3326566,47.8247995 L17.3326566,61.1576122 L24.1323911,61.1576122 C24.7499445,64.2802705 27.4889979,66.5306843 30.6721358,66.5306843 C33.8552737,66.5306843 36.5943271,64.2802705 37.2118805,61.1576122 L64.1174967,61.1576122 C64.7350501,64.2802705 67.4741034,66.5306843 70.6572414,66.5306843 C73.8403793,66.5306843 76.5794327,64.2802705 77.196986,61.1576122 L83.8633924,61.1576122 L84.2100456,60.9309544 C84.6100299,60.6509654 86.6632831,59.1710231 86.6632831,57.1577684 C86.6632831,56.9844418 86.6632831,56.7844497 86.6632831,56.5844575 C86.6632831,55.3978371 86.7566128,53.3712496 85.3300018,52.344623 C85.4233315,50.0247136 85.3300018,45.1715697 81.7168096,43.7849572 C81.3834892,43.0783181 80.6368517,41.5050462 79.050247,37.9718508 C77.7041599,35.0441664 74.7795097,33.165521 71.5572062,33.1587054 L62.6642201,33.1587054 L62.6642201,21.1591739 L17.3326566,21.1591739 L17.3326566,33.1587054 L19.9992192,33.1587054 L19.9992192,23.8257364 L59.9976575,23.8257364 L59.9976575,58.4910497 L37.1985477,58.4910497 C36.5809943,55.3683914 33.8419409,53.1179777 30.658803,53.1179777 C27.4756651,53.1179777 24.7366117,55.3683914 24.1190583,58.4910497 Z M66.8907217,58.4910497 C67.4595065,56.8995762 68.967181,55.8373413 70.6572414,55.8373413 C72.3473017,55.8373413 73.8549762,56.8995762 74.423761,58.4910497 C74.7434841,59.3511526 74.7434841,60.2975094 74.423761,61.1576122 C73.8549762,62.7490858 72.3473017,63.8113206 70.6572414,63.8113206 C68.967181,63.8113206 67.4595065,62.7490858 66.8907217,61.1576122 C66.5709986,60.2975094 66.5709986,59.3511526 66.8907217,58.4910497 Z M62.6508873,58.4910497 L62.6642201,35.825268 L71.5438734,35.825268 C73.7216049,35.832247 75.6977755,37.1011566 76.6103423,39.0784743 C78.2769439,42.8516603 79.3302361,44.9849103 79.6102251,45.5182229 L79.8902142,46.0382026 L80.476858,46.1848635 C82.6634393,46.718176 82.7834346,49.9847151 82.6634393,52.6512777 L82.6634393,54.1712183 L83.6234018,54.4512074 C83.9833877,54.5445371 83.9833877,55.477834 83.9833877,56.5044606 C83.9833877,56.7311184 83.9833877,56.8244481 83.9833877,57.1577684 C83.9833877,57.4910887 83.5034065,58.0643997 82.9967596,58.4910497 L77.196986,58.4910497 C76.5794327,55.3683914 73.8403793,53.1179777 70.6572414,53.1179777 C67.4741034,53.1179777 64.7350501,55.3683914 64.1174967,58.4910497 L62.6508873,58.4910497 Z M26.8922834,58.4910497 C27.4610682,56.8995762 28.9687426,55.8373413 30.658803,55.8373413 C32.3488634,55.8373413 33.8565379,56.8995762 34.4253226,58.4910497 C34.7450458,59.3511526 34.7450458,60.2975094 34.4253226,61.1576122 C33.8565379,62.7490858 32.3488634,63.8113206 30.658803,63.8113206 C28.9687426,63.8113206 27.4610682,62.7490858 26.8922834,61.1576122 C26.5725602,60.2975094 26.5725602,59.3511526 26.8922834,58.4910497 Z M73.7037891,39.8251118 C73.3295958,39.0132926 72.5177774,38.4928962 71.6238703,38.4918305 L65.3307827,38.4918305 L65.3307827,47.8248263 L73.7704531,47.8247995 C74.5738631,47.828634 75.3233877,47.4211744 75.7570423,46.7448416 C76.1902057,46.0640723 76.2455224,45.2091787 75.9037032,44.4782635 L73.7037891,39.8251118 Z M67.9840124,45.1582369 L67.9840124,41.1583931 L71.3838797,41.1583931 L73.2638063,45.1582369 L67.9840124,45.1582369 Z" id="Shape"></path>
                        <path d="M24.3190505,7.83969392 C24.587737,5.19736524 26.6877919,3.11406611 29.3321881,2.86655475 C31.4014886,2.87551428 33.2514404,4.15828885 33.9853398,6.09309544 L34.4653211,7.42637672 L35.7986023,6.91972984 C36.0899125,6.7846837 36.4132093,6.73387992 36.7318992,6.7730689 C37.7741955,6.81512863 38.6962604,7.46109505 39.0918071,8.42633768 L39.451793,9.21297364 L53.3312511,9.21297364 L53.3312511,6.54641108 L40.9983993,6.54641108 C40.0644483,5.01981219 38.4270679,4.06342179 36.6385695,3.99984384 C36.4076686,3.98620691 36.1761642,3.98620691 35.9452633,3.99984384 C34.5884032,1.5942946 32.0406925,0.106431542 29.2788569,0.106662502 C25.674523,0.335046473 22.6406669,2.88759566 21.7991489,6.39975014 L10.6662502,6.39975014 L10.6662502,9.06631269 L24.3057177,9.06631269 L24.3190505,7.83969392 Z" id="Shape"></path>
                        <path d="M80.7035158,13.1594862 C79.5155435,11.6741398 77.7496852,10.7669544 75.8503719,10.6662502 C74.5831222,8.90983053 72.5627439,7.8527133 70.3972515,7.81302829 C67.2310232,7.89582716 64.5066502,10.0753255 63.7308451,13.1461534 L51.9979699,13.1461534 L51.9979699,15.812716 L66.2107483,15.812716 L66.2107483,14.4794347 C66.2515811,12.5984808 67.56148,10.9841394 69.3936851,10.5567296 C71.2258902,10.1293198 73.1148871,10.9974352 73.9837782,12.6661721 L74.423761,13.4261425 L75.2903938,13.31948 C76.7522094,13.2350917 78.1433005,13.9562087 78.9169189,15.1994066 L79.3035705,15.7993832 L85.3300018,15.7993832 L85.3300018,13.1328206 L80.7035158,13.1594862 Z" id="Shape"></path>
                        <polygon id="Shape" points="19.9858864 37.1585492 17.3193238 37.1585492 17.3193238 42.4916743 6.65307358 42.4916743 6.65307358 45.1582369 17.3193238 45.1582369 19.9858864 45.1582369 31.9854179 45.1582369 31.9854179 42.4916743 19.9858864 42.4916743"></polygon>
                        <rect id="Rectangle-path" x="13.31948" y="31.8254241" width="33.332032" height="2.66656256"></rect>
                        <rect id="Rectangle-path" x="13.31948" y="21.1591739" width="41.3317196" height="2.66656256"></rect>
                        <rect id="Rectangle-path" x="7.98635486" y="21.1591739" width="2.66656256" height="2.66656256"></rect>
                        <rect id="Rectangle-path" x="2.65322974" y="21.1591739" width="2.66656256" height="2.66656256"></rect>
                        <rect id="Rectangle-path" x="1.31994847" y="42.4916743" width="2.66656256" height="2.66656256"></rect>
                        <rect id="Rectangle-path" x="7.98635486" y="31.8254241" width="2.66656256" height="2.66656256"></rect>
                    </g>
                </g>
            </g>
        </g>
    </g>
</svg>