<?xml version="1.0" encoding="UTF-8"?>
<svg width="64px" height="64px" viewBox="0 0 64 64" version="1.1" xmlns="http://www.w3.org/2000/svg" xmlns:xlink="http://www.w3.org/1999/xlink">
    <!-- Generator: Sketch 50.2 (55047) - http://www.bohemiancoding.com/sketch -->
    <title>noun_analysis_1610203</title>
    <desc>Created with Sketch.</desc>
    <defs></defs>
    <g id="noun_analysis_1610203" stroke="none" stroke-width="1" fill="none" fill-rule="evenodd">
        <g transform="translate(4.000000, 1.000000)" fill="#000000" fill-rule="nonzero">
            <path d="M42.37,0.15 L39.37,3.15 C38.2250699,2.60263265 36.8595814,2.83488582 35.96,3.73 L18.96,20.73 L17.55,19.32 L12,24.9 L14.83,27.73 L12,30.55 L17.66,36.21 L20.48,33.38 L23.31,36.21 L28.97,30.55 L27.56,29.14 L29.43,27.26 C30.4293224,27.8184429 31.5552282,28.1111095 32.7,28.11 C33.521091,28.111289 34.3351481,27.9586533 35.1,27.66 C37.7665912,29.6618887 39.3310383,32.8056117 39.32,36.14 C39.3234375,38.9526829 38.1918133,41.6477638 36.1814149,43.6148671 C34.1710165,45.5819704 31.4519416,46.6546615 28.64,46.59 C25.1279522,46.5506992 21.862948,44.7759148 19.92,41.85 L23.5,41.85 L23.5,39.85 L18.82,39.85 L18.74,39.68 L9.92,39.68 L9.92,39.85 L7.5,39.85 L7.5,41.85 L10.5,41.85 C11.9704256,46.5728337 15.2438381,50.5253625 19.61,52.85 L18.26,52.85 C15.0717009,52.8610274 12.4944648,55.4516866 12.5,58.64 L12.5,59.85 L8.5,59.85 L8.5,61.85 L47.5,61.85 L47.5,59.85 L46.5,59.85 L46.5,58.64 C46.5277821,55.4775637 43.9923246,52.8884458 40.83,52.85 L37.56,52.85 C43.5103683,49.7629055 47.3816295,43.7562589 47.7352531,37.0620834 C48.0888766,30.3679079 44.8720039,23.9868267 39.28,20.29 C39.1606323,19.53108 38.9066422,18.7995886 38.53,18.13 L44.53,12.13 C45.4251142,11.2304186 45.6573673,9.86493015 45.11,8.72 L48.11,5.72 L42.37,0.15 Z M17.63,33.38 L14.8,30.55 L16.21,29.14 L19,32 L17.63,33.38 Z M43.7,7.17 L40.87,4.34 L42.76,2.43 L45.59,5.26 L43.7,7.17 Z M23.28,33.38 L21.87,32 L20.46,30.59 L17.63,27.76 L16.21,26.34 L14.8,24.9 L16.92,22.78 L18.33,24.19 L19.75,25.61 L22.58,28.44 L24,29.85 L25.41,31.26 L23.28,33.38 Z M35.23,25.38 C34.4724902,25.8860938 33.5810072,26.1542352 32.67,26.15 C32.460276,26.1652269 32.249724,26.1652269 32.04,26.15 C31.6486848,26.0940029 31.2657853,25.9898812 30.9,25.84 C30.7369902,25.781061 30.5796761,25.7074246 30.43,25.62 L30.33,25.55 C29.9208453,25.3267365 29.5523309,25.035982 29.24,24.69 C28.4101553,23.799036 27.9646651,22.6170499 28,21.4 C28.0055006,18.7954978 30.1154978,16.6855006 32.72,16.68 C33.9024816,16.7039742 35.0318217,17.1757239 35.88,18 C36.2117755,18.2917182 36.501232,18.6282954 36.74,19 C36.8537994,19.1893398 36.95405,19.3864995 37.04,19.59 C37.2647831,20.1530329 37.3801759,20.7537546 37.38,21.36 C37.3927686,22.9674564 36.5813846,24.4694605 35.23,25.34 L35.23,25.38 Z M40.83,54.89 C42.8877677,54.9283323 44.527872,56.622064 44.5,58.68 L44.5,59.89 L14.4999468,59.89 L14.5,58.64 C14.4946829,57.6384037 14.8881572,56.6758619 15.5935829,55.9648078 C16.2990086,55.2537537 17.2583931,54.8526427 18.26,54.85 L25.79,54.85 C26.7334314,54.9909962 27.6860916,55.0611922 28.64,55.06 C29.5872699,55.0612076 30.5332833,54.9910087 31.47,54.85 L40.83,54.89 Z M39.24,22.72 C44.5398154,26.9135874 46.8522557,33.8482139 45.1300793,40.3833747 C43.4079028,46.9185355 37.9782249,51.8129224 31.3,52.85 L25.93,52.85 C19.8099955,51.9157258 14.7016033,47.6875607 12.64,41.85 L17.58,41.85 C19.7563232,45.9505422 23.9980335,48.5354542 28.64,48.59 C31.97967,48.6546182 35.2043791,47.3702092 37.5850691,45.0271586 C39.9657591,42.684108 41.3013915,39.4802756 41.29,36.14 C41.2956738,32.468143 39.7043668,28.9752972 36.93,26.57 C38.124327,25.5943796 38.9411948,24.2329334 39.24,22.72 Z M37.24,16.54 C35.7565371,15.1131266 33.6966717,14.4523454 31.66,14.75 C28.7282023,15.1973065 26.4318019,17.5058787 26,20.44 C25.7140051,22.4732561 26.3818524,24.5247651 27.81,26 L26.11,27.7 L25.4,28.41 L19.75,22.76 L20.46,22.05 L37.27,5.24 C37.4747505,5.03297059 37.7538231,4.91646918 38.045,4.91646918 C38.3361769,4.91646918 38.6152495,5.03297059 38.82,5.24 L42.92,9.34 C43.1270294,9.54475053 43.2435308,9.82382315 43.2435308,10.115 C43.2435308,10.4061769 43.1270294,10.6852495 42.92,10.89 L37.24,16.54 Z" id="Shape"></path>
            <polygon id="Shape" points="2.5 46.85 0.5 46.85 0.5 53.85 7.5 53.85 7.5 51.85 2.5 51.85"></polygon>
            <polygon id="Shape" points="0.5 28.85 2.5 28.85 2.5 22.85 7.5 22.85 7.5 20.85 0.5 20.85"></polygon>
            <polygon id="Shape" points="53.5 51.85 48.5 51.85 48.5 53.85 55.5 53.85 55.5 46.85 53.5 46.85"></polygon>
            <polygon id="Shape" points="53.47 28.84 55.47 28.85 55.5 21.85 48.5 21.85 48.5 23.85 53.49 23.85"></polygon>
            <rect id="Rectangle-path" x="4.5" y="59.85" width="2" height="2"></rect>
            <rect id="Rectangle-path" x="49.5" y="59.85" width="2" height="2"></rect>
            <rect id="Rectangle-path" x="53.5" y="59.85" width="2" height="2"></rect>
        </g>
    </g>
</svg>