<?xml version="1.0" encoding="UTF-8"?>
<svg width="64px" height="64px" viewBox="0 0 64 64" version="1.1" xmlns="http://www.w3.org/2000/svg" xmlns:xlink="http://www.w3.org/1999/xlink">
    <!-- Generator: Sketch 50.2 (55047) - http://www.bohemiancoding.com/sketch -->
    <title>noun_Files Exchange_1822083</title>
    <desc>Created with Sketch.</desc>
    <defs></defs>
    <g id="noun_Files-Exchange_1822083" stroke="none" stroke-width="1" fill="none" fill-rule="evenodd">
        <g transform="translate(1.000000, 1.000000)" fill="#000000" fill-rule="nonzero">
            <path d="M20,40 L0,40 L0,58 C0,60.209139 1.790861,62 4,62 L22,62 C24.209139,62 26,60.209139 26,58 L26,44 L20,44 L20,40 Z M6,58 C6,59.1045695 5.1045695,60 4,60 C2.8954305,60 2,59.1045695 2,58 L2,42 L18,42 L18,44 L6,44 L6,58 Z M24,46 L24,58 C24,59.1045695 23.1045695,60 22,60 L7.46,60 C7.81250702,59.3923207 7.99875332,58.7025196 8,58 L8,46 L24,46 Z" id="Shape"></path>
            <rect id="Rectangle-path" x="10" y="48" width="12" height="2"></rect>
            <rect id="Rectangle-path" x="10" y="52" width="12" height="2"></rect>
            <rect id="Rectangle-path" x="10" y="56" width="8" height="2"></rect>
            <rect id="Rectangle-path" x="20" y="56" width="2" height="2"></rect>
            <polygon id="Shape" points="7 38 7 26.87 8.45 27.83 9.55 26.17 6 23.8 2.45 26.17 3.55 27.83 5 26.87 5 38"></polygon>
            <polygon id="Shape" points="57 38 57 26.87 58.44 27.83 59.56 26.17 56 23.8 52.44 26.17 53.56 27.83 55 26.87 55 38"></polygon>
            <polygon id="Shape" points="35.32 22.27 30.5 26.77 25.68 22.27 24.32 23.73 29.03 28.13 21.46 35.21 20.95 33.68 19.05 34.32 20.21 37.79 23.68 38.95 24.32 37.05 22.91 36.58 30.5 29.5 38.09 36.58 36.68 37.05 37.32 38.95 40.79 37.79 41.95 34.32 40.05 33.68 39.54 35.21 31.97 28.13 36.68 23.73"></polygon>
            <path d="M4,22 L22,22 C24.209139,22 26,20.209139 26,18 L26,4 L20,4 L20,0 L0,0 L0,18 C0,20.209139 1.790861,22 4,22 Z M24,6 L24,18 C24,19.1045695 23.1045695,20 22,20 L7.46,20 C7.81250702,19.3923207 7.99875332,18.7025196 8,18 L8,6 L24,6 Z M2,2 L18,2 L18,4 L6,4 L6,18 C6,19.1045695 5.1045695,20 4,20 C2.8954305,20 2,19.1045695 2,18 L2,2 Z" id="Shape"></path>
            <rect id="Rectangle-path" x="10" y="8" width="12" height="2"></rect>
            <rect id="Rectangle-path" x="10" y="12" width="12" height="2"></rect>
            <rect id="Rectangle-path" x="10" y="16" width="8" height="2"></rect>
            <rect id="Rectangle-path" x="20" y="16" width="2" height="2"></rect>
            <path d="M56,4 L56,0 L36,0 L36,18 C36,20.209139 37.790861,22 40,22 L58,22 C60.209139,22 62,20.209139 62,18 L62,4 L56,4 Z M42,18 C42,19.1045695 41.1045695,20 40,20 C38.8954305,20 38,19.1045695 38,18 L38,2 L54,2 L54,4 L42,4 L42,18 Z M60,18 C60,19.1045695 59.1045695,20 58,20 L43.46,20 C43.812507,19.3923207 43.9987533,18.7025196 44,18 L44,6 L60,6 L60,18 Z" id="Shape"></path>
            <rect id="Rectangle-path" x="46" y="8" width="12" height="2"></rect>
            <rect id="Rectangle-path" x="46" y="12" width="12" height="2"></rect>
            <rect id="Rectangle-path" x="46" y="16" width="8" height="2"></rect>
            <rect id="Rectangle-path" x="56" y="16" width="2" height="2"></rect>
            <path d="M56,40 L36,40 L36,58 C36,60.209139 37.790861,62 40,62 L58,62 C60.209139,62 62,60.209139 62,58 L62,44 L56,44 L56,40 Z M42,58 C42,59.1045695 41.1045695,60 40,60 C38.8954305,60 38,59.1045695 38,58 L38,42 L54,42 L54,44 L42,44 L42,58 Z M60,46 L60,58 C60,59.1045695 59.1045695,60 58,60 L43.46,60 C43.812507,59.3923207 43.9987533,58.7025196 44,58 L44,46 L60,46 Z" id="Shape"></path>
            <rect id="Rectangle-path" x="46" y="48" width="12" height="2"></rect>
            <rect id="Rectangle-path" x="46" y="52" width="12" height="2"></rect>
            <rect id="Rectangle-path" x="46" y="56" width="8" height="2"></rect>
            <rect id="Rectangle-path" x="56" y="56" width="2" height="2"></rect>
        </g>
    </g>
</svg>