<?xml version="1.0" encoding="UTF-8"?>
<svg width="70px" height="79px" viewBox="0 0 70 79" version="1.1" xmlns="http://www.w3.org/2000/svg" xmlns:xlink="http://www.w3.org/1999/xlink">
    <!-- Generator: sketchtool 50.2 (55047) - http://www.bohemiancoding.com/sketch -->
    <title>F364A2DF-0958-44BB-BFA7-845B13D40A10</title>
    <desc>Created with sketchtool.</desc>
    <defs></defs>
    <g id="Page-1" stroke="none" stroke-width="1" fill="none" fill-rule="evenodd">
        <g id="hp:-government" transform="translate(-605.000000, -1601.000000)">
            <g id="hp/card-copy-2" transform="translate(490.000000, 1528.000000)">
                <g id="icon" transform="translate(107.000000, 70.000000)">
                    <rect id="Background" x="0" y="0" width="85.3300018" height="85.3300018"></rect>
                    <g id="noun_courier_1610206" transform="translate(7.999688, 2.666563)" fill="#000000" fill-rule="nonzero">
                        <path d="M54.6645324,52.3046246 L29.3321881,52.3046246 L29.3321881,42.2783493 L35.6652742,48.9447557 C36.6841265,50.018717 38.0916658,50.6384186 39.5717883,50.6646886 C41.0834465,50.6589837 42.5276126,50.0379923 43.5716322,48.9447557 L46.0115369,46.2781932 L45.4782244,45.4248932 C45.2648994,45.0649072 40.1450993,36.8252289 37.9185196,33.7720148 C37.5851992,33.3186992 37.2252133,32.7720538 36.8385617,32.1720773 C34.5719836,28.7322116 30.7587991,22.9724364 23.8524021,22.9724364 L11.466219,22.9724364 C6.053097,22.9724364 0,28.4788881 0,35.8386008 L0,48.1714526 C0,51.8646417 3.99984384,56.0111465 7.99968767,56.7844497 L7.99968767,78.9702501 L10.6662502,78.9702501 L10.6662502,34.9719679 L7.99968767,34.9719679 L7.99968767,54.051223 C5.4264548,53.2645871 2.66656256,50.4113651 2.66656256,48.1714526 L2.66656256,35.8386008 C2.66656256,30.0921585 7.3997111,25.638999 11.466219,25.638999 L23.8124036,25.638999 C29.2921897,25.638999 32.3454038,30.265485 34.5719836,33.6386867 C34.9986336,34.2653289 35.3719523,34.8519726 35.7319383,35.3319539 C37.5052024,37.745193 41.2517228,43.7182931 42.6383353,45.9982041 L41.6117087,47.1181604 C41.0840165,47.676655 40.3533743,47.9987144 39.5851212,48.0114588 C38.8264852,48.0026241 38.1042497,47.6848405 37.5851992,47.1314932 L26.6656256,35.5719445 L26.6656256,78.9702501 L69.3306265,78.9702501 L69.3306265,52.3046246 L54.6645324,52.3046246 Z M51.9979699,54.9711871 L51.9979699,58.971031 L42.6650009,58.971031 L42.6650009,54.9711871 L51.9979699,54.9711871 Z M66.6640639,76.3036876 L29.3321881,76.3036876 L29.3321881,54.9711871 L39.9984384,54.9711871 L39.9984384,61.6375935 L54.6645324,61.6375935 L54.6645324,54.9711871 L66.6640639,54.9711871 L66.6640639,76.3036876 Z" id="Shape"></path>
                        <rect id="Rectangle-path" x="61.3309388" y="70.9705625" width="2.66656256" height="2.66656256"></rect>
                        <rect id="Rectangle-path" x="55.9978137" y="70.9705625" width="2.66656256" height="2.66656256"></rect>
                        <rect id="Rectangle-path" x="50.6646886" y="70.9705625" width="2.66656256" height="2.66656256"></rect>
                        <path d="M18.6659379,21.3325005 C22.5191208,21.3325005 26.6656256,18.945927 26.6656256,13.6927987 L26.6656256,8.62632987 C26.6656256,3.4398657 22.5191208,1.07995784 18.6659379,1.07995784 C14.812755,1.07995784 10.6662502,3.4398657 10.6662502,8.62632987 L10.6662502,13.6927987 C10.6662502,18.8925957 14.812755,21.3325005 18.6659379,21.3325005 Z M13.3328128,8.62632987 C13.3328128,5.02647042 16.1993675,3.74652039 18.6659379,3.74652039 C21.1325083,3.74652039 23.999063,5.07980167 23.999063,8.62632987 L23.999063,13.6927987 C23.999063,17.0793332 21.3325005,18.6659379 18.6659379,18.6659379 C15.9993753,18.6659379 13.3328128,17.1326644 13.3328128,13.6927987 L13.3328128,8.62632987 Z" id="Shape"></path>
                        <rect id="Rectangle-path" x="17.3326566" y="53.6379058" width="2.66656256" height="25.3323443"></rect>
                    </g>
                </g>
            </g>
        </g>
    </g>
</svg>