<?xml version="1.0" encoding="UTF-8"?>
<svg width="73px" height="85px" viewBox="0 0 73 85" version="1.1" xmlns="http://www.w3.org/2000/svg" xmlns:xlink="http://www.w3.org/1999/xlink">
    <!-- Generator: sketchtool 50.2 (55047) - http://www.bohemiancoding.com/sketch -->
    <title>246FD941-5009-4DC0-B5A3-AD84AB636317</title>
    <desc>Created with sketchtool.</desc>
    <defs></defs>
    <g id="Page-1" stroke="none" stroke-width="1" fill="none" fill-rule="evenodd">
        <g id="hp:-government" transform="translate(-253.000000, -902.000000)">
            <g id="hp/card" transform="translate(140.000000, 832.000000)">
                <g id="icon" transform="translate(107.000000, 70.000000)">
                    <rect id="Background" x="0" y="0" width="85.3300018" height="85.3300018"></rect>
                    <g id="noun_growing-business_1610221" transform="translate(5.333125, 0.000000)" fill="#000000" fill-rule="nonzero">
                        <polygon id="Shape" points="9.1729752 63.3975248 8.55966581 63.9975014 11.2262284 66.6640639 11.9995315 65.8907608 12.0128643 65.8907608 13.1194878 64.7708045 10.4529252 62.104242"></polygon>
                        <path d="M73.2371406,47.5848088 C71.7809306,46.1990243 69.8000652,45.5047504 67.797353,45.6782166 C64.7977162,45.856402 62.0812485,47.5092527 60.5443029,50.0913776 L59.9309935,50.491362 L53.9712262,45.7315479 L49.9713823,45.7315479 L46.9048354,43.6782947 L46.9048354,30.3454819 C46.8994223,28.5514691 46.4988323,26.7806792 45.7315479,25.1590177 C51.4498271,21.7205175 53.7457309,14.5843217 51.1051721,8.45656112 C48.4646134,2.32880051 41.700787,-0.9033997 35.2742562,0.891510287 C28.8477253,2.68642027 24.7376254,8.9556741 25.6544577,15.5648661 C26.57129,22.1740582 32.2327038,27.0878 38.9051477,27.06561 C40.4134076,27.056073 41.9094848,26.7947102 43.3316416,26.2923068 C43.9084419,27.5481259 44.2172156,28.9103631 44.2382728,30.2921507 L44.2382728,43.0649853 L43.2249791,43.0649853 L40.1450993,41.518379 L35.7719367,44.3982666 L33.332032,44.3982666 L28.4255569,46.0115369 L27.4655943,49.7313917 L26.8389521,49.7313917 C23.1590958,49.7313917 19.6792317,52.4646183 17.8926348,54.1045543 L14.9327503,57.1044372 L14.1861128,57.8510747 L10.8395768,54.5045387 L0.959962521,64.3974858 L21.505827,84.9300174 L31.3854413,75.063736 L28.9322037,72.5971656 C29.1550592,72.467798 29.4078309,72.3988603 29.6655084,72.3971734 L49.851387,72.3971734 L50.1580417,72.2238469 C52.0646339,71.1572218 62.5042263,62.4108967 63.6908467,61.4109357 L63.810842,61.3042732 C64.1441623,60.9442872 71.8105297,52.6912761 73.3971344,48.9180901 L73.7037891,48.2247838 L73.2371406,47.5848088 Z M28.1722334,13.7327972 C28.1722334,7.84198983 32.9476763,3.06654694 38.8384836,3.06654694 C44.729291,3.06654694 49.5047339,7.84198983 49.5047339,13.7327972 C49.5047339,19.6236045 44.729291,24.3990474 38.8384836,24.3990474 C32.9476763,24.3990474 28.1722334,19.6236045 28.1722334,13.7327972 Z M30.6654694,48.0914557 L33.758682,47.0648291 L36.6119039,47.0648291 L40.3050931,44.584926 L42.5583384,45.7315479 L45.1449041,45.7315479 L49.1447479,48.3981104 L53.1445918,48.3981104 L57.5577528,51.9979699 L53.7179027,54.4645402 C52.7083277,53.1616184 51.1530198,52.3987301 49.5047339,52.3979542 L41.5050462,52.3979542 C40.630755,52.189996 39.8001897,51.8288807 39.0518087,51.3313292 C37.7472186,50.438082 36.2386438,49.887842 34.6653132,49.7313917 L30.2121538,49.7313917 L30.6654694,48.0914557 Z M21.505827,81.1701642 L4.71981573,64.3974858 L10.8395768,58.2643919 L12.319519,59.7443341 L14.2127784,61.6509263 L25.1323521,72.5705 L27.0256115,74.4637594 L27.6255881,75.063736 L21.505827,81.1701642 Z M61.9175826,59.4110138 L61.5042654,59.7576669 L60.7576279,60.3976419 C56.4911278,63.9441701 50.7713511,68.6373202 49.1314151,69.7306109 L29.6655084,69.7306109 C28.6937262,69.7271037 27.7509925,70.0617742 26.9989459,70.6772406 L16.0660394,59.7443341 L16.8126769,58.9976966 L19.7458957,55.9978137 C21.2125051,54.6645324 24.0657271,52.3712886 26.8389521,52.3712886 L34.6653132,52.3712886 C35.7629779,52.5731348 36.8070299,52.9998343 37.7318602,53.624573 C38.8498883,54.3976234 40.1412953,54.8830459 41.4917134,55.0378512 L49.4914011,55.0378512 C50.9641029,55.0378512 52.1579636,56.2317119 52.1579636,57.7044137 C52.1579636,59.1771156 50.9641029,60.3709763 49.4914011,60.3709763 L36.1585883,60.3709763 L36.1585883,63.0375389 L49.4914011,63.0375389 C51.3947891,63.0355865 53.1528608,62.0193602 54.1045543,60.3709763 C54.5745453,59.5607689 54.822864,58.6410699 54.8245262,57.7044137 C54.8448592,57.4425959 54.8448592,57.1795956 54.8245262,56.9177778 L58.82437,54.2512152 L61.4909326,52.557948 L62.4642279,51.917973 L62.6242217,51.6646495 C63.6476086,49.7639003 65.5438764,48.4914048 67.6906905,48.2647823 C68.6328832,48.1809774 69.5811526,48.3321507 70.4505828,48.7047651 C67.8972711,52.4960635 65.0437757,56.0763084 61.9175826,59.4110138 Z" id="Shape"></path>
                        <path d="M49.5047339,37.7318602 L57.5044215,37.7318602 C63.3952289,37.7318602 68.1706718,32.9564173 68.1706718,27.06561 L68.1706718,25.7323287 L60.1709841,25.7323287 C54.2801768,25.7323287 49.5047339,30.5077716 49.5047339,36.3985789 L49.5047339,37.7318602 Z M60.1709841,28.3988912 L65.3974467,28.3988895 C64.7465171,32.2498478 61.4100033,35.0678493 57.5044215,35.0652976 L52.2779589,35.0652994 C52.9288885,31.2143411 56.2654023,28.3963396 60.1709841,28.3988912 Z" id="Shape"></path>
                        <path d="M42.8383275,39.0651415 L42.8383275,37.7318602 C42.8383275,33.3137547 39.2567453,29.7321725 34.8386398,29.7321725 L29.5055147,29.7321725 L29.5055147,31.0654538 C29.5055147,35.4835593 33.0870969,39.0651415 37.5052024,39.0651415 L42.8383275,39.0651415 Z M32.3454038,32.3987351 L34.8386398,32.3987351 C37.2690546,32.4005479 39.3908352,34.0453391 39.9984384,36.3985789 L37.5052024,36.3985789 C35.0747876,36.396766 32.953007,34.7519749 32.3454038,32.3987351 Z" id="Shape"></path>
                    </g>
                </g>
            </g>
        </g>
    </g>
</svg>