<?xml version="1.0" encoding="UTF-8"?>
<svg width="81px" height="84px" viewBox="0 0 81 84" version="1.1" xmlns="http://www.w3.org/2000/svg" xmlns:xlink="http://www.w3.org/1999/xlink">
    <!-- Generator: sketchtool 50.2 (55047) - http://www.bohemiancoding.com/sketch -->
    <title>C21B9312-EB99-40F0-9964-554897282CBC</title>
    <desc>Created with sketchtool.</desc>
    <defs></defs>
    <g id="Page-1" stroke="none" stroke-width="1" fill="none" fill-rule="evenodd">
        <g id="hp:-government" transform="translate(-249.000000, -1600.000000)">
            <g id="hp/card-copy" transform="translate(140.000000, 1528.000000)">
                <g id="icon" transform="translate(107.000000, 70.000000)">
                    <rect id="Background" x="0" y="0" width="85.3300018" height="85.3300018"></rect>
                    <g id="noun_People-connection_1822125" transform="translate(2.666563, 1.333281)" fill="#000000" fill-rule="nonzero">
                        <path d="M42.6650009,41.9050306 C44.7554154,40.6981292 45.7745798,38.2376488 45.1498416,35.9060944 C44.5251035,33.57454 42.4122411,31.9532836 39.9984384,31.9532836 C37.5846356,31.9532836 35.4717732,33.57454 34.8470351,35.9060944 C34.222297,38.2376488 35.2414613,40.6981292 37.3318758,41.9050306 C34.9080277,42.9628746 33.3386872,45.3535033 33.332032,47.998126 L33.332032,49.3314073 C33.332032,50.0677582 33.9289623,50.6646886 34.6653132,50.6646886 L45.3315635,50.6646886 C46.0679144,50.6646886 46.6648448,50.0677582 46.6648448,49.3314073 L46.6648448,47.998126 C46.6581895,45.3535033 45.088849,42.9628746 42.6650009,41.9050306 Z M39.9984384,34.6653132 C41.4711402,34.6653132 42.6650009,35.859174 42.6650009,37.3318758 C42.6650009,38.8045776 41.4711402,39.9984384 39.9984384,39.9984384 C38.5257365,39.9984384 37.3318758,38.8045776 37.3318758,37.3318758 C37.3318758,35.859174 38.5257365,34.6653132 39.9984384,34.6653132 Z M35.9985945,47.998126 C35.9985946,45.7890733 37.7893857,43.9982824 39.9984384,43.9982824 C42.207491,43.9982824 43.9982821,45.7890733 43.9982822,47.998126 L35.9985945,47.998126 Z" id="Shape"></path>
                        <path d="M67.9973452,29.3321881 L78.6635954,29.3321881 C79.3999464,29.3321881 79.9968767,28.7352578 79.9968767,27.9989069 L79.9968767,26.6656256 C79.9902214,24.0210029 78.420881,21.6303742 75.9970329,20.5725301 C78.0874473,19.3656288 79.1066117,16.9051483 78.4818736,14.5735939 C77.8571355,12.2420396 75.744273,10.6207832 73.3304703,10.6207832 C70.9166676,10.6207832 68.8038052,12.2420396 68.179067,14.5735939 C67.5543289,16.9051483 68.5734933,19.3656288 70.6639078,20.5725301 C69.0369356,21.3005853 67.7692844,22.6498655 67.1440452,24.3190505 L52.0646339,34.3453257 C49.6099549,30.7808077 45.7062165,28.4824817 41.3983837,28.0655709 L41.3983837,19.9992192 L45.3982275,19.9992192 C46.1345785,19.9992192 46.7315088,19.4022888 46.7315088,18.6659379 L46.7315088,17.3326566 C46.7248535,14.6880339 45.1555131,12.2974052 42.731665,11.2395612 C44.8220794,10.0326598 45.8412438,7.57217938 45.2165057,5.240625 C44.5917676,2.90907062 42.4789051,1.28781423 40.0651024,1.28781423 C37.6512997,1.28781423 35.5384373,2.90907062 34.9136991,5.240625 C34.288961,7.57217938 35.3081254,10.0326598 37.3985399,11.2395612 C34.9485931,12.2771334 33.3501898,14.672118 33.332032,17.3326566 L33.332032,18.6659379 C33.332032,19.4022888 33.9289623,19.9992192 34.6653132,19.9992192 L38.6651571,19.9992192 L38.6651571,27.9989069 C34.3573243,28.4158176 30.4535858,30.7141436 27.9989069,34.2786617 L12.8794972,24.3190505 C12.2480272,22.6448593 10.9700374,21.2948024 9.33296895,20.5725301 C11.4233834,19.3656288 12.4425478,16.9051483 11.8178097,14.5735939 C11.1930716,12.2420396 9.0802091,10.6207832 6.66640639,10.6207832 C4.25260368,10.6207832 2.13974122,12.2420396 1.51500311,14.5735939 C0.890264997,16.9051483 1.90942937,19.3656288 3.99984384,20.5725301 C1.57599575,21.6303742 0.00665526951,24.0210029 9.47353327e-15,26.6656256 L9.47353327e-15,27.9989069 C9.47353327e-15,28.7352578 0.596930361,29.3321881 1.33328128,29.3321881 L11.9995315,29.3321881 C12.7358824,29.3321881 13.3328128,28.7352578 13.3328128,27.9989069 L13.3328128,27.8255803 L26.6656256,36.678568 C24.9372289,40.4916948 24.9372289,44.8649726 26.6656256,48.6780995 L11.3328909,59.25102 C10.7573025,58.695687 10.0896265,58.2445545 9.35963458,57.9177387 C11.450049,56.7108374 12.4692134,54.2503569 11.8444753,51.9188026 C11.2197372,49.5872482 9.10687473,47.9659918 6.69307202,47.9659918 C4.27926931,47.9659918 2.16640685,49.5872482 1.54166874,51.9188026 C0.916930623,54.2503569 1.93609499,56.7108374 4.02650946,57.9177387 C1.5966414,58.9655697 0.0165622569,61.3513846 0,63.9975014 L0,65.3307827 C0,66.0671336 0.596930361,66.6640639 1.33328128,66.6640639 L11.9995315,66.6640639 C12.7358824,66.6640639 13.3328128,66.0671336 13.3328128,65.3307827 L13.3328128,63.9975014 C13.3307268,63.1281318 13.1586133,62.2675643 12.8261659,61.4642669 L27.9989069,50.9980089 C30.442612,54.5827402 34.3480381,56.901587 38.6651571,57.331095 L38.6651571,65.5841061 C36.604284,66.1476962 35.0786722,67.8868346 34.7883122,70.0035591 C34.4979522,72.1202836 35.4988926,74.2059998 37.3318758,75.3037266 C34.9299852,76.3517519 33.3649189,78.7097851 33.332032,81.330158 L33.332032,82.6634393 C33.332032,83.3997902 33.9289623,83.9967206 34.6653132,83.9967206 L45.3315635,83.9967206 C46.0679144,83.9967206 46.6648448,83.3997902 46.6648448,82.6634393 L46.6648448,81.330158 C46.6581895,78.6855353 45.088849,76.2949066 42.6650009,75.2370626 C44.4979841,74.1393358 45.4989245,72.0536196 45.2085645,69.9368951 C44.9182045,67.8201705 43.3925927,66.0810322 41.3317196,65.517442 L41.3317196,57.331095 C45.637238,56.9173397 49.540557,54.6241398 51.9979699,51.064673 L67.1707108,61.4642669 C66.8382634,62.2675643 66.6661499,63.1281318 66.6640639,63.9975014 L66.6640639,65.3307827 C66.6640639,66.0671336 67.2609943,66.6640639 67.9973452,66.6640639 L78.6635954,66.6640639 C79.3999464,66.6640639 79.9968767,66.0671336 79.9968767,65.3307827 L79.9968767,63.9975014 C79.9902214,61.3528787 78.420881,58.96225 75.9970329,57.9044059 C78.0874473,56.6975046 79.1066117,54.2370241 78.4818736,51.9054697 C77.8571355,49.5739154 75.744273,47.952659 73.3304703,47.952659 C70.9166676,47.952659 68.8038052,49.5739154 68.179067,51.9054697 C67.5543289,54.2370241 68.5734933,56.6975046 70.6639078,57.9044059 C69.9339159,58.2312217 69.2662398,58.6823542 68.6906515,59.2376872 L53.3312511,48.6647667 C55.0596478,44.8516398 55.0596478,40.478362 53.3312511,36.6652352 L66.6640639,27.8122475 L66.6640639,27.9989069 C66.6640639,28.7352578 67.2609943,29.3321881 67.9973452,29.3321881 Z M39.9984384,3.99984384 C41.4711402,3.99984384 42.6650009,5.19370456 42.6650009,6.66640639 C42.6650009,8.13910823 41.4711402,9.33296895 39.9984384,9.33296895 C38.5257365,9.33296895 37.3318758,8.13910823 37.3318758,6.66640639 C37.3318758,5.19370456 38.5257365,3.99984384 39.9984384,3.99984384 Z M39.9984384,13.3328128 C42.2074911,13.3328128 43.9982822,15.1236039 43.9982822,17.3326566 L35.9985945,17.3326566 C35.9985945,15.1236039 37.7893856,13.3328128 39.9984384,13.3328128 Z M6.66640639,13.3328128 C8.13910823,13.3328128 9.33296895,14.5266735 9.33296895,15.9993753 C9.33296895,17.4720772 8.13910823,18.6659379 6.66640639,18.6659379 C5.19370456,18.6659379 3.99984384,17.4720772 3.99984384,15.9993753 C3.99984384,14.5266735 5.19370456,13.3328128 6.66640639,13.3328128 Z M2.66656256,26.6656256 C2.66656262,24.4565729 4.45735369,22.6657819 6.66640639,22.6657819 C8.8754591,22.6657819 10.6662502,24.4565729 10.6662502,26.6656256 L2.66656256,26.6656256 Z M6.66640639,50.6646886 C8.13910823,50.6646886 9.33296895,51.8585493 9.33296895,53.3312511 C9.33296895,54.803953 8.13910823,55.9978137 6.66640639,55.9978137 C5.19370456,55.9978137 3.99984384,54.803953 3.99984384,53.3312511 C3.99984384,51.8585493 5.19370456,50.6646886 6.66640639,50.6646886 Z M2.66656256,63.9975014 C2.66656262,61.7884487 4.45735369,59.9976577 6.66640639,59.9976577 C8.8754591,59.9976577 10.6662502,61.7884487 10.6662502,63.9975014 L2.66656256,63.9975014 Z M73.3304703,50.6646886 C74.8031722,50.6646886 75.9970329,51.8585493 75.9970329,53.3312511 C75.9970329,54.803953 74.8031722,55.9978137 73.3304703,55.9978137 C71.8577685,55.9978137 70.6639078,54.803953 70.6639078,53.3312511 C70.6639078,51.8585493 71.8577685,50.6646886 73.3304703,50.6646886 Z M73.3304703,59.9976575 C75.5395231,59.9976575 77.3303142,61.7884486 77.3303142,63.9975014 L69.3306265,63.9975014 C69.3306265,61.7884486 71.1214176,59.9976575 73.3304703,59.9976575 Z M43.9982822,81.330158 L35.9985945,81.330158 C35.9985946,79.1211053 37.7893857,77.3303143 39.9984384,77.3303143 C42.207491,77.3303143 43.9982821,79.1211053 43.9982822,81.330158 Z M42.6650009,70.6639078 C42.6650009,72.1366096 41.4711402,73.3304703 39.9984384,73.3304703 C38.5257365,73.3304703 37.3318758,72.1366096 37.3318758,70.6639078 C37.3318758,69.1912059 38.5257365,67.9973452 39.9984384,67.9973452 C41.4711402,67.9973452 42.6650009,69.1912059 42.6650009,70.6639078 Z M39.9984384,54.6645324 C33.3712801,54.6645324 27.9989069,49.2921592 27.9989069,42.6650009 C27.9989069,36.0378427 33.3712801,30.6654694 39.9984384,30.6654694 C46.6255966,30.6654694 51.9979699,36.0378427 51.9979699,42.6650009 C51.9979699,49.2921592 46.6255966,54.6645324 39.9984384,54.6645324 Z M73.3304703,13.3328128 C74.8031722,13.3328128 75.9970329,14.5266735 75.9970329,15.9993753 C75.9970329,17.4720772 74.8031722,18.6659379 73.3304703,18.6659379 C71.8577685,18.6659379 70.6639078,17.4720772 70.6639078,15.9993753 C70.6639078,14.5266735 71.8577685,13.3328128 73.3304703,13.3328128 Z M73.3304703,22.6657817 C75.5395231,22.6657817 77.3303142,24.4565728 77.3303142,26.6656256 L69.3306265,26.6656256 C69.3306265,24.4565728 71.1214176,22.6657817 73.3304703,22.6657817 Z" id="Shape"></path>
                    </g>
                </g>
            </g>
        </g>
    </g>
</svg>