<?xml version="1.0" encoding="UTF-8"?>
<svg width="146px" height="138px" viewBox="0 0 146 138" version="1.1" xmlns="http://www.w3.org/2000/svg" xmlns:xlink="http://www.w3.org/1999/xlink">
    <!-- Generator: sketchtool 50.2 (55047) - http://www.bohemiancoding.com/sketch -->
    <title>03AE3C28-B898-498F-9311-EACD0966BF1D</title>
    <desc>Created with sketchtool.</desc>
    <defs></defs>
    <g id="Page-1" stroke="none" stroke-width="1" fill="none" fill-rule="evenodd">
        <g id="hp:-suppliers" transform="translate(-918.000000, -1742.000000)" fill="#D7E9FE">
            <g id="hp/card-copy-3" transform="translate(840.000000, 1697.000000)">
                <path d="M154,41.7320508 L212.08588,75.2679492 C213.942286,76.339746 215.08588,78.3205081 215.08588,80.4641016 L215.08588,147.535898 C215.08588,149.679492 213.942286,151.660254 212.08588,152.732051 L154,186.267949 C152.143594,187.339746 149.856406,187.339746 148,186.267949 L89.9141201,152.732051 C88.0577137,151.660254 86.9141201,149.679492 86.9141201,147.535898 L86.9141201,80.4641016 C86.9141201,78.3205081 88.0577137,76.339746 89.9141201,75.2679492 L148,41.7320508 C149.856406,40.660254 152.143594,40.660254 154,41.7320508 Z" id="Polygon" transform="translate(151.000000, 114.000000) rotate(20.000000) translate(-151.000000, -114.000000) "></path>
            </g>
        </g>
    </g>
</svg>