<?xml version="1.0" encoding="UTF-8"?>
<svg width="164px" height="136px" viewBox="0 0 164 136" version="1.1" xmlns="http://www.w3.org/2000/svg" xmlns:xlink="http://www.w3.org/1999/xlink">
    <!-- Generator: sketchtool 50.2 (55047) - http://www.bohemiancoding.com/sketch -->
    <title>649B69A2-80C6-4F3B-AD61-E9295B4D65A0</title>
    <desc>Created with sketchtool.</desc>
    <defs></defs>
    <g id="Page-1" stroke="none" stroke-width="1" fill="none" fill-rule="evenodd">
        <g id="hp:-suppliers" transform="translate(-558.000000, -416.000000)">
            <g id="noun_partnership_1610231" transform="translate(558.000000, 402.000000)">
                <rect id="Background" x="0" y="0" width="164" height="164"></rect>
                <g id="Group" transform="translate(0.000000, 12.812500)" fill="#FFFFFF" fill-rule="nonzero">
                    <path d="M43.5625,37.15625 C52.053878,37.15625 58.9375,30.272628 58.9375,21.78125 L58.9375,16.65625 C58.9375,8.16487197 52.053878,1.28125 43.5625,1.28125 C35.071122,1.28125 28.1875,8.16487197 28.1875,16.65625 L28.1875,21.78125 C28.1875,25.8589535 29.8073614,29.7696449 32.6907332,32.6530168 C35.5741051,35.5363886 39.4847965,37.15625 43.5625,37.15625 Z M33.3125,16.65625 C33.3125,10.9953313 37.9015813,6.40625 43.5625,6.40625 C49.2234187,6.40625 53.8125,10.9953313 53.8125,16.65625 L53.8125,21.78125 C53.8125,27.4421687 49.2234187,32.03125 43.5625,32.03125 C37.9015813,32.03125 33.3125,27.4421687 33.3125,21.78125 L33.3125,16.65625 Z" id="Shape"></path>
                    <path d="M64.0625,83.28125 C64.0625,90.96875 60.346875,90.96875 58.9375,90.96875 L56.375,90.96875 L56.375,137.09375 L61.5,137.09375 L61.5,95.811875 C64.8825,95.0175 69.1875,92.25 69.1875,83.28125 L69.1875,75.59375 L64.0625,75.59375 L64.0625,83.28125 Z" id="Shape"></path>
                    <rect id="Rectangle-path" x="41" y="93.53125" width="5.125" height="43.5625"></rect>
                    <rect id="Rectangle-path" x="74.3125" y="65.34375" width="5.125" height="5.125"></rect>
                    <polygon id="Shape" points="55.631875 56.400625 51.993125 52.761875 36.874375 67.90625 51.993125 83.050625 55.631875 79.411875 46.663125 70.46875 69.1875 70.46875 69.1875 65.34375 46.663125 65.34375"></polygon>
                    <rect id="Rectangle-path" x="84.5625" y="65.34375" width="5.125" height="5.125"></rect>
                    <path d="M51.25,39.71875 L33.3125,39.71875 C22.1696725,40.1396784 13.2334284,49.0759225 12.8125,60.21875 L12.8125,80.71875 C12.8095133,81.5839037 12.9215359,82.4456162 13.145625,83.28125 L0,83.28125 L0,114.03125 L25.625,114.03125 L25.625,137.09375 L30.75,137.09375 L30.75,114.03125 L35.875,114.03125 L35.875,83.28125 L30.75,83.28125 L30.75,60.21875 L25.625,60.21875 L25.625,83.28125 L18.526875,83.28125 C18.1553507,82.4770226 17.9546658,81.6044798 17.9375,80.71875 L17.9375,60.21875 C17.9375,50.84 27.034375,44.84375 33.3125,44.84375 L51.25,44.84375 C57.55375,44.84375 64.0625,50.58375 64.0625,60.21875 L69.1875,60.21875 C69.1875,47.380625 60.065,39.71875 51.25,39.71875 Z M22.49875,88.40625 L30.75,88.40625 L30.75,108.90625 L5.125,108.90625 L5.125,88.40625 L22.49875,88.40625 Z" id="Shape"></path>
                    <path d="M120.4375,37.15625 C128.928878,37.15625 135.8125,30.272628 135.8125,21.78125 L135.8125,16.65625 C135.8125,8.16487197 128.928878,1.28125 120.4375,1.28125 C111.946122,1.28125 105.0625,8.16487197 105.0625,16.65625 L105.0625,21.78125 C105.0625,25.8589535 106.682361,29.7696449 109.565733,32.6530168 C112.449105,35.5363886 116.359796,37.15625 120.4375,37.15625 Z M110.1875,16.65625 C110.1875,10.9953313 114.776581,6.40625 120.4375,6.40625 C126.098419,6.40625 130.6875,10.9953313 130.6875,16.65625 L130.6875,21.78125 C130.6875,27.4421687 126.098419,32.03125 120.4375,32.03125 C114.776581,32.03125 110.1875,27.4421687 110.1875,21.78125 L110.1875,16.65625 Z" id="Shape"></path>
                    <path d="M99.9375,83.28125 L99.9375,75.59375 L94.8125,75.59375 L94.8125,83.28125 C94.8125,89.94375 97.759375,94.581875 102.5,95.78625 L102.5,137.09375 L107.625,137.09375 L107.625,90.96875 L105.0625,90.96875 C100.29625,90.96875 99.9375,85.075 99.9375,83.28125 Z" id="Shape"></path>
                    <rect id="Rectangle-path" x="117.875" y="93.53125" width="5.125" height="43.5625"></rect>
                    <polygon id="Shape" points="108.368125 56.400625 117.336875 65.34375 94.8125 65.34375 94.8125 70.46875 117.336875 70.46875 108.368125 79.411875 112.006875 83.050625 127.125625 67.90625 112.006875 52.761875"></polygon>
                    <path d="M150.854375,83.28125 C151.078464,82.4456162 151.190487,81.5839037 151.1875,80.71875 L151.1875,60.21875 C150.766572,49.0759225 141.830328,40.1396784 130.6875,39.71875 L112.75,39.71875 C103.935,39.71875 94.8125,47.40625 94.8125,60.21875 L99.9375,60.21875 C99.9375,50.58375 106.44625,44.84375 112.75,44.84375 L130.6875,44.84375 C136.965625,44.84375 146.0625,50.84 146.0625,60.21875 L146.0625,80.71875 C146.045334,81.6044798 145.844649,82.4770226 145.473125,83.28125 L138.375,83.28125 L138.375,60.21875 L133.25,60.21875 L133.25,83.28125 L128.125,83.28125 L128.125,114.03125 L133.25,114.03125 L133.25,137.09375 L138.375,137.09375 L138.375,114.03125 L164,114.03125 L164,83.28125 L150.854375,83.28125 Z M158.875,108.90625 L133.25,108.90625 L133.25,88.40625 L158.875,88.40625 L158.875,108.90625 Z" id="Shape"></path>
                </g>
            </g>
        </g>
    </g>
</svg>