<?xml version="1.0" encoding="UTF-8"?>
<svg width="64px" height="64px" viewBox="0 0 64 64" version="1.1" xmlns="http://www.w3.org/2000/svg" xmlns:xlink="http://www.w3.org/1999/xlink">
    <!-- Generator: Sketch 50.2 (55047) - http://www.bohemiancoding.com/sketch -->
    <title>noun_rush_1610234</title>
    <desc>Created with Sketch.</desc>
    <defs></defs>
    <g id="noun_rush_1610234" stroke="none" stroke-width="1" fill="none" fill-rule="evenodd">
        <g transform="translate(2.000000, 5.000000)" fill="#000000" fill-rule="nonzero">
            <rect id="Rectangle-path" x="13.25" y="0.52" width="21" height="2"></rect>
            <rect id="Rectangle-path" x="0.25" y="30.52" width="18" height="2"></rect>
            <rect id="Rectangle-path" x="9.25" y="0.52" width="2" height="2"></rect>
            <rect id="Rectangle-path" x="5.25" y="0.52" width="2" height="2"></rect>
            <path d="M59.19,17.4 C59.0879959,15.0559821 57.7192787,12.9529147 55.6173273,11.9105015 C53.515376,10.8680883 51.0128344,11.0512962 49.0851077,12.388717 C47.157381,13.7261377 46.109541,16.0061182 46.35,18.34 C46.5809356,21.7122925 49.3798186,24.3321518 52.76,24.34 L53.24,24.34 C54.9517598,24.2149524 56.5427886,23.4117876 57.6599103,22.108792 C58.777032,20.8057963 59.3278162,19.1107791 59.19,17.4 Z M53.09,22.3 C51.3116617,22.4171835 49.6355913,21.4596797 48.8333417,19.8682606 C48.0310921,18.2768416 48.2581528,16.3599511 49.41,15 C50.1657809,14.1116279 51.2466613,13.5639818 52.41,13.48 L52.74,13.48 C55.1387625,13.4675375 57.1136964,15.3626285 57.2001806,17.7598638 C57.2866649,20.1570992 55.4534246,22.1895764 53.06,22.35 L53.09,22.3 Z" id="Shape"></path>
            <rect id="Rectangle-path" transform="translate(16.651492, 46.482975) rotate(-25.660000) translate(-16.651492, -46.482975) " x="5.92149245" y="45.4829749" width="21.46" height="2"></rect>
            <rect id="Rectangle-path" transform="translate(14.934732, 42.108774) rotate(-35.270000) translate(-14.934732, -42.108774) " x="3.20473213" y="41.1087738" width="23.46" height="2"></rect>
            <path d="M23.06,13.52 L24.06,15.36 C24.5364464,15.5637541 25.0372806,15.7049288 25.55,15.78 L33.28,16.78 L37.21,22 L30.11,29.32 L29.81,29.7 C27.12,33.08 28.45,35.79 31.81,39.61 L36.37,44.33 L25.31,50.77 L24.3,49 L33.21,43.82 L30.39,41 C27.28,37.51 24.32,33.41 28.25,28.48 L28.61,28.03 L34.61,21.86 L32.23,18.67 L25.44,17.83 L27.55,21.64 L16.12,27.91 L7.89,13 L19.3,6.72 L22,11.53 L35.59,11.53 C38.08,12.3 42.97,16.9 43.52,17.43 L43.66,17.56 L48.84,29 L59.75,30.7 L59.15,32 C59.06,32.19 56.85,36.56 52.42,36.56 L45,36.56 L44.75,36.4 C43.68,35.72 42.14,33.54 41.23,32.16 L38.11,35.33 L43.39,43.13 C44.0355776,44.0828745 44.2050936,45.2804216 43.8493437,46.3750367 C43.4935938,47.4696519 42.6524257,48.3387266 41.57,48.73 L26.64,53.47 L26,51.57 L40.86,46.79 C41.3377551,46.6025613 41.7052645,46.2093263 41.86,45.72 C42.0229402,45.2108931 41.9456759,44.6553258 41.65,44.21 L35.45,35.06 L41.45,28.91 L42.21,30 C43.1644314,31.6286043 44.2945141,33.1476769 45.58,34.53 L52.42,34.53 C54.0696613,34.4461305 55.5922711,33.6186252 56.56,32.28 L47.47,30.86 L42,18.78 C40.52,17.4 36.86,14.17 35.11,13.52 L23.06,13.52 Z M19.67,11.52 L18.54,9.44 L10.63,13.82 L16.93,25.19 L24.83,20.81 L22.67,16.9 L19.67,11.52 Z" id="Shape"></path>
        </g>
    </g>
</svg>