<?xml version="1.0" encoding="UTF-8"?>
<svg width="85px" height="84px" viewBox="0 0 85 84" version="1.1" xmlns="http://www.w3.org/2000/svg" xmlns:xlink="http://www.w3.org/1999/xlink">
    <!-- Generator: sketchtool 50.2 (55047) - http://www.bohemiancoding.com/sketch -->
    <title>357A04E0-E61C-49C8-B5B7-AC6932123F7A</title>
    <desc>Created with sketchtool.</desc>
    <defs></defs>
    <g id="Page-1" stroke="none" stroke-width="1" fill="none" fill-rule="evenodd">
        <g id="hp:-suppliers" transform="translate(-247.000000, -1768.000000)">
            <g id="hp/card-copy" transform="translate(140.000000, 1697.000000)">
                <g id="icon" transform="translate(107.000000, 70.000000)">
                    <rect id="Background" x="0" y="0" width="85.3300018" height="85.3300018"></rect>
                    <g id="noun_hand-shake_1610232" fill="#000000" fill-rule="nonzero">
                        <rect id="Rectangle-path" transform="translate(65.330264, 29.088601) rotate(-45.000000) translate(-65.330264, -29.088601) " x="63.9969825" y="27.2020075" width="2.66656256" height="3.77318602"></rect>
                        <path d="M53.9978918,68.9839734 C55.834003,69.5064151 57.8088846,69.1361248 59.3310169,67.9840124 C60.6184235,67.114226 61.5615935,65.822083 61.9975795,64.3308217 C64.2700567,63.8824853 66.2057625,62.4048472 67.2373749,60.3309779 C67.9842716,58.7014415 67.9842716,56.8273813 67.2373749,55.1978449 C69.4772874,53.8645637 71.6905344,50.8780136 73.7971188,47.8514651 C74.063775,47.4781463 74.3037657,47.1048276 74.5170907,46.8115057 L75.9970329,48.3047807 L84.5433659,39.7584477 L63.9975014,19.2125832 L55.4511684,27.7589162 L57.1711012,29.4788491 C56.7603882,29.8432351 56.3136599,30.1648795 55.8378199,30.4388116 C53.5525743,29.8776836 51.321676,29.1147163 49.1714136,28.1589006 C48.1416292,27.6995593 47.0866463,27.2989329 46.0115369,26.9589475 C44.6782556,26.6256271 34.7719757,29.4388506 29.9454975,31.8387569 L27.8789115,29.7588381 L29.8788335,27.7589162 L21.3325005,19.2125832 L0.786635954,39.7584477 L9.33296895,48.3047807 L11.3328909,46.3048588 L12.1595253,47.144826 C12.3552194,47.7121316 12.6099393,48.2573215 12.9194956,48.7714292 L11.3462237,50.3313683 C10.5931017,51.0818798 10.169782,52.1013599 10.169782,53.164591 C10.169782,54.227822 10.5931017,55.2473022 11.3462237,55.9978137 L26.4256349,71.0905578 C27.1761465,71.8436798 28.1956266,72.2669995 29.2588577,72.2669995 C30.3220887,72.2669995 31.3415689,71.8436798 32.0920804,71.0905578 L33.2787007,69.9039374 L33.9986726,70.6239093 L36.251918,72.8771547 C37.3742763,74.1292693 38.9579673,74.8705715 40.6384134,74.9304079 C40.8470411,74.9449482 41.0564279,74.9449482 41.2650556,74.9304079 C43.2354181,74.5476739 44.9615526,73.3712023 46.0382026,71.6772015 C47.4193198,72.1035927 48.8969198,72.1035927 50.278037,71.6772015 C51.7594118,71.1716422 53.0551609,70.2335013 53.9978918,68.9839734 Z M63.9975014,22.9724364 L80.7835127,39.7584477 L79.4502314,41.091729 L75.9970329,44.5449275 L75.5570501,44.1049447 L74.5970875,43.1316494 L61.104281,29.6521756 L60.1576513,28.7055459 L59.2110216,27.7589162 L63.9975014,22.9724364 Z M31.9187538,33.7986804 C35.9185976,32.0520819 43.9182853,29.5455131 45.3448963,29.5455131 C45.7448807,29.6388428 46.9714994,30.1454897 48.1581198,30.625471 C52.7046089,32.4787319 54.9445215,33.2920335 56.1578075,33.0787085 C57.2195379,32.7109111 58.1949819,32.1301816 59.0243622,31.3721085 L72.5571672,44.864915 C72.2771781,45.224901 71.9438578,45.7048822 71.5438734,46.2781932 C70.3039218,48.0514573 67.6240265,51.9313058 65.664103,52.9445996 C65.434344,53.0799396 65.1809785,53.1704273 64.9174655,53.2112558 C64.696754,53.2473114 64.4724247,53.1725349 64.3174889,53.0112636 C61.3976029,50.4380308 56.117809,45.011576 52.3179574,41.0117321 L49.0380854,37.6651961 C48.1096315,36.8761951 46.9060674,36.487794 45.6915494,36.5852383 C44.4949512,36.6162002 43.3035487,36.7545278 42.1316884,36.9985555 C41.3317196,37.1452164 40.5050852,37.318543 39.665118,37.5052024 C38.3318368,37.7985242 36.9985555,38.0785133 35.8386008,38.2251743 C34.3366214,38.3353945 32.8453205,37.89984 31.6387647,36.9985555 C31.4109701,36.8488019 31.1968166,36.6792637 30.9987897,36.4919086 C30.921661,36.436925 30.8502,36.3743967 30.7854647,36.3052492 C30.6505222,36.1821257 30.5256817,36.048368 30.412146,35.9052648 C30.1295508,35.6133196 29.9234533,35.256084 29.8121694,34.8653054 C30.4722797,34.4321262 31.178891,34.0743483 31.9187538,33.7986804 Z M11.3328909,42.5450056 L9.45296427,44.4249322 L9.33296895,44.5449275 L4.54648916,39.7584477 L21.3325005,22.9724364 L26.1189802,27.7589162 L25.9989849,27.8789115 L24.1190583,29.7588381 L11.3328909,42.5450056 Z M33.2387023,66.0374217 C33.1934084,66.1630801 33.1205115,66.2769815 33.0253773,66.370742 L31.4121069,67.9973452 L30.198821,69.2106312 C29.6787913,69.7275758 28.838924,69.7275758 28.3188944,69.2106312 L13.2261503,54.1178871 C12.7092057,53.5978575 12.7092057,52.7579901 13.2261503,52.2379605 L14.5594316,50.9046792 L16.1193707,49.3447401 C16.2320376,49.2314006 16.3687329,49.1448269 16.519355,49.0914167 C16.6340249,49.0712351 16.7513383,49.0712351 16.8660082,49.0914167 L17.0526676,49.0914167 C17.5949648,49.1811146 18.0920943,49.4484389 18.4659457,49.851387 C19.0207701,50.3251588 19.2969714,51.0483042 19.1992504,51.771312 C19.1570886,51.9385638 19.0694028,52.0908602 18.945927,52.2112949 L20.8258536,54.0912215 C20.946179,53.9744152 21.0923504,53.8876259 21.2525036,53.837898 C21.4241504,53.8037718 21.6008365,53.8037718 21.7724833,53.837898 C22.3120368,53.9437914 22.8056635,54.2138891 23.1857614,54.6112012 C23.5663528,54.9838783 23.8145291,55.4708658 23.8924005,55.9978137 C23.9328665,56.1732817 23.9328665,56.3556582 23.8924005,56.5311262 C23.8389903,56.6817484 23.7524166,56.8184437 23.6390771,56.9311106 L25.5323365,58.82437 C25.6347605,58.7080258 25.7692742,58.6245345 25.9189881,58.5843794 C26.0980279,58.5362717 26.2865936,58.5362717 26.4656334,58.5843794 C27.0079307,58.6740773 27.5050601,58.9414016 27.8789115,59.3443497 C28.462288,59.8321722 28.7374623,60.5965453 28.5988834,61.3442716 C28.5443186,61.4794017 28.4626417,61.601917 28.3588928,61.7042576 L30.2388194,63.5841842 C30.3367707,63.484636 30.4549982,63.4073334 30.5854725,63.3575264 C31.3354581,63.204697 32.108781,63.4761282 32.5987273,64.0641654 C33.163173,64.5512172 33.4098484,65.3117997 33.2387023,66.0374217 Z M49.4514026,69.0506374 C48.4129615,69.3945275 47.282258,69.3277348 46.291526,68.863978 L40.2650946,62.8508795 L38.385168,64.7308061 L43.8116228,70.1572609 C43.1603011,71.2059718 42.1199628,71.9538648 40.9184024,72.2371797 C39.8452513,72.2949249 38.8109812,71.8275143 38.1451774,70.9838953 L35.1719601,67.9973452 C36.49149,66.1536629 36.1722334,63.6054149 34.4386554,62.1442404 C33.5997435,61.273524 32.4810469,60.7259763 31.2787788,60.5976341 C30.9679215,58.1335706 29.0238961,56.1950368 26.5589631,55.8911512 C26.2652344,53.4998083 24.4299327,51.5884881 22.0524723,51.1980011 L21.8524802,51.1980011 C21.5653047,48.7910774 19.7237885,46.862646 17.3326566,46.4648526 C16.5177806,46.3595805 15.6906247,46.5184692 14.9727488,46.9181682 C14.8213498,46.6433591 14.700629,46.3527349 14.6127628,46.0515354 L14.5194331,45.718215 L13.1861518,44.3849338 L25.9723193,31.5987663 L27.6655865,33.332032 C27.5826451,33.4107681 27.5108706,33.5004862 27.4522615,33.5986882 C26.8426818,34.7107043 26.9804638,36.0832251 27.7989147,37.0518867 C29.6880874,39.734087 32.8468248,41.2274003 36.1185898,40.9850665 C37.3718742,40.8250728 38.7851524,40.5317509 40.1184337,40.2250962 C42.4250103,39.7317821 46.2781932,38.8918149 47.0381635,39.6784509 C47.7981338,40.4650868 48.9447557,41.6117087 50.2913698,42.9849884 C54.1845512,46.9848323 59.5043435,52.4246199 62.4908935,55.0645168 C63.0590637,55.5749971 63.7820401,55.8801495 64.5441467,55.9311496 C65.1001888,56.9344948 65.1447565,58.1427735 64.664142,59.184356 C63.9683284,60.5818363 62.634726,61.5521814 61.0909482,61.7842545 L50.9313448,51.6113183 L49.0380854,53.5045777 L59.2376872,63.7041795 C58.9736627,64.5783142 58.4184904,65.3357951 57.6644153,65.8507624 C56.6661292,66.6241257 55.3224218,66.783114 54.1712183,66.2640795 L45.3315635,57.331095 L43.4649697,59.25102 L51.7446464,67.5306968 C51.1296927,68.2330564 50.337842,68.7578876 49.4514026,69.0506374 Z" id="Shape"></path>
                        <rect id="Rectangle-path" transform="translate(20.005954, 29.090775) rotate(-45.000000) translate(-20.005954, -29.090775) " x="18.119361" y="27.7574932" width="3.77318602" height="2.66656256"></rect>
                        <path d="M3.66652352,50.6646886 L0.999960959,51.1713355 C4.17853886,67.5301704 16.6924562,80.4829893 32.9320476,84.2233784 L33.5320242,81.5568158 C18.3558506,78.0501478 6.65847007,65.9506698 3.66652352,50.6646886 Z" id="Shape"></path>
                        <path d="M51.2646652,81.6234799 L51.8646417,84.2900424 C67.5985964,80.7086651 79.8752412,68.4060874 83.4234096,52.6646105 L80.8235111,52.0646339 C77.4818084,66.7859695 65.9860007,78.2817772 51.2646652,81.6234799 Z" id="Shape"></path>
                        <path d="M51.2646652,4.77314698 C58.9376523,6.52264661 65.9063639,10.5412703 71.2638843,16.30603 L73.2238078,14.4794347 C65.2600926,5.94030973 54.1080381,1.09161239 42.4316767,1.09161239 C30.7553153,1.09161239 19.6032608,5.94030973 11.6395456,14.4794347 L13.5861362,16.2926972 C23.2099005,6.03599816 37.5507194,1.65154398 51.2646652,4.77314698 Z" id="Shape"></path>
                        <rect id="Rectangle-path" transform="translate(33.327242, 21.086142) rotate(-45.000000) translate(-33.327242, -21.086142) " x="31.9939607" y="19.1995494" width="2.66656256" height="3.77318602"></rect>
                        <rect id="Rectangle-path" transform="translate(39.568322, 17.591313) rotate(-18.615692) translate(-39.568322, -17.591313) " x="38.231778" y="15.4795739" width="2.67308765" height="4.22347849"></rect>
                        <rect id="Rectangle-path" transform="translate(45.999900, 17.751814) rotate(-71.570000) translate(-45.999900, -17.751814) " x="43.8933156" y="16.4185327" width="4.21316884" height="2.66656256"></rect>
                        <rect id="Rectangle-path" transform="translate(52.001934, 21.086816) rotate(-45.000000) translate(-52.001934, -21.086816) " x="50.1153412" y="19.7535345" width="3.77318602" height="2.66656256"></rect>
                    </g>
                </g>
            </g>
        </g>
    </g>
</svg>