<?xml version="1.0" encoding="UTF-8"?>
<svg width="83px" height="83px" viewBox="0 0 83 83" version="1.1" xmlns="http://www.w3.org/2000/svg" xmlns:xlink="http://www.w3.org/1999/xlink">
    <!-- Generator: sketchtool 50.2 (55047) - http://www.bohemiancoding.com/sketch -->
    <title>4D241F37-542C-406E-BC6D-06D4418DE41E</title>
    <desc>Created with sketchtool.</desc>
    <defs></defs>
    <g id="Page-1" stroke="none" stroke-width="1" fill="none" fill-rule="evenodd">
        <g id="hp:-suppliers" transform="translate(-948.000000, -903.000000)">
            <g id="hp/card" transform="translate(840.000000, 832.000000)">
                <g id="icon" transform="translate(107.000000, 70.000000)">
                    <rect id="Background" x="0" y="0" width="85.3300018" height="85.3300018"></rect>
                    <g id="noun_tactics_1822117" transform="translate(1.333281, 1.333281)" fill="#000000" fill-rule="nonzero">
                        <path d="M80.756847,47.8647979 C79.7757388,46.9840761 78.4686411,46.5580591 77.1569876,46.6915104 C76.5364971,46.7564543 75.9367431,46.9518287 75.3970563,47.2648213 C74.9130926,45.6962455 73.6363234,44.5001428 72.0395415,44.1194349 C70.4427596,43.738727 68.7636624,44.2300863 67.6240265,45.4115603 C66.7501799,44.5085374 65.5474291,43.9985711 64.2908233,43.9982822 C63.5975341,44.0011277 62.9138562,44.1606525 62.2909013,44.4649306 L62.2909013,34.185332 C62.3320202,31.7385858 60.5307069,29.6504391 58.1043981,29.3321881 C56.7905805,29.1963319 55.4807291,29.6236055 54.4997276,30.5080317 C53.5187261,31.3924579 52.9584745,32.651184 52.9579324,33.972007 L52.9579324,59.1176919 L47.8781307,54.0378902 C45.8721756,51.9434411 42.5758553,51.7909423 40.3850899,53.6912371 C39.2987279,54.670416 38.6621578,56.0527683 38.6243465,57.5148024 C38.5865353,58.9768366 39.1508013,60.390245 40.1850977,61.4242685 L53.6912371,74.9304079 L53.6912371,81.330158 L56.3577996,81.330158 L56.3577996,73.8237844 L42.0650243,59.5443419 C41.5637466,59.0182431 41.2988899,58.3103533 41.3317196,57.5844184 C41.3483016,56.8506093 41.6666259,56.1560837 42.2116853,55.6644934 C43.3615524,54.7418763 45.0274157,54.8579644 46.0382026,55.9311496 L55.6644934,65.5574405 L55.6644934,33.9986726 C55.6664325,33.4381311 55.90198,32.903777 56.3144519,32.5242016 C56.7269238,32.1446262 57.2789701,31.9542007 57.8377419,31.9987507 C58.8974151,32.1666914 59.6645553,33.0998546 59.6243388,34.1719992 L59.6243388,54.6645324 L62.2909013,54.6645324 L62.2909013,48.6647667 C62.2909013,47.5602403 63.1862969,46.6648448 64.2908233,46.6648448 C65.3953496,46.6648448 66.2907452,47.5602403 66.2907452,48.6647667 L66.2907452,54.6645324 L68.9573077,54.6645324 L68.9573077,48.6647667 C68.9573077,47.5602403 69.8527033,46.6648448 70.9572296,46.6648448 C72.061756,46.6648448 72.9571516,47.5602403 72.9571516,48.6647667 L72.9571516,55.9978137 L75.6237141,55.9978137 L75.6237141,51.5179886 C75.5774211,50.4364778 76.3533949,49.4938134 77.4236438,49.3314073 C77.9863881,49.2706174 78.5483423,49.4527606 78.9684267,49.8321095 C79.3885111,50.2114585 79.6268318,50.7519877 79.623558,51.3179964 L79.623558,75.9970329 C79.623558,76.7333838 79.0266276,77.3303142 78.2902767,77.3303142 L76.9569954,77.3303142 L76.9569954,81.330158 L79.623558,81.330158 L79.623558,79.7702189 C81.2224072,79.2049406 82.2910095,77.6928683 82.2901205,75.9970329 L82.2901205,51.3313292 C82.2874982,50.0119878 81.7312242,48.7543247 80.756847,47.8647979 Z" id="Shape"></path>
                        <path d="M55.6244949,13.3328128 L55.6244949,26.6656256 L58.2910575,26.6656256 L58.2910575,13.3328128 C58.2910575,5.96930361 52.3217539,3.55271368e-15 44.9582447,3.55271368e-15 C37.5947355,3.55271368e-15 31.6254319,5.96930361 31.6254319,13.3328128 L31.6254319,21.3325005 L34.2919945,21.3325005 L34.2919945,13.3328128 C34.2919945,7.44200545 39.0674374,2.66656256 44.9582447,2.66656256 C50.8490521,2.66656256 55.6244949,7.44200545 55.6244949,13.3328128 Z" id="Shape"></path>
                        <path d="M8.95965019,15.9993753 C13.3777557,15.9993753 16.9593379,12.4177932 16.9593379,7.99968767 C16.9593379,3.58158217 13.3777557,-3.55271368e-15 8.95965019,-3.55271368e-15 C4.54154469,-3.55271368e-15 0.959962521,3.58158217 0.959962521,7.99968767 C0.959962521,12.4177932 4.54154469,15.9993753 8.95965019,15.9993753 Z M8.95965019,2.66656256 C11.9050539,2.66656256 14.2927753,5.054284 14.2927753,7.99968767 C14.2927753,10.9450913 11.9050539,13.3328128 8.95965019,13.3328128 C6.01424652,13.3328128 3.62652508,10.9450913 3.62652508,7.99968767 C3.62652508,5.054284 6.01424652,2.66656256 8.95965019,2.66656256 Z" id="Shape"></path>
                        <rect id="Rectangle-path" x="31.6254319" y="23.999063" width="2.66656256" height="5.33312511"></rect>
                        <path d="M31.6254319,61.3309388 L31.6254319,69.3306265 C31.6254319,75.2214338 26.849989,79.9968767 20.9591817,79.9968767 C15.0683744,79.9968767 10.2929315,75.2214338 10.2929315,69.3306265 L10.2929315,22.1591349 L16.3726941,25.1856834 L17.5593144,22.8124427 L8.95965019,18.5059441 L0.373318758,22.8124427 L1.5599391,25.1856834 L7.62636891,22.1591349 L7.62636891,69.3306265 C7.62636907,76.6941356 13.5956726,82.663439 20.9591817,82.663439 C28.3226908,82.663439 34.2919943,76.6941356 34.2919945,69.3306265 L34.2919945,55.9978137 L31.6254319,55.9978137 L31.6254319,61.3309388 Z" id="Shape"></path>
                        <rect id="Rectangle-path" x="31.6254319" y="31.9987507" width="2.66656256" height="5.33312511"></rect>
                        <rect id="Rectangle-path" x="31.6254319" y="47.998126" width="2.66656256" height="5.33312511"></rect>
                        <rect id="Rectangle-path" x="31.6254319" y="39.9984384" width="2.66656256" height="5.33312511"></rect>
                    </g>
                </g>
            </g>
        </g>
    </g>
</svg>