<?xml version="1.0" encoding="UTF-8"?>
<svg width="64px" height="64px" viewBox="0 0 64 64" version="1.1" xmlns="http://www.w3.org/2000/svg" xmlns:xlink="http://www.w3.org/1999/xlink">
    <!-- Generator: Sketch 50.2 (55047) - http://www.bohemiancoding.com/sketch -->
    <title>noun_Cosmic Rocket_1610199</title>
    <desc>Created with Sketch.</desc>
    <defs></defs>
    <g id="noun_Cosmic-Rocket_1610199" stroke="none" stroke-width="1" fill="none" fill-rule="evenodd">
        <g transform="translate(9.000000, 0.000000)" fill="#000000" fill-rule="nonzero">
            <rect id="Rectangle-path" x="20.34" y="36.27" width="2" height="5"></rect>
            <path d="M35.17,45.4 L35.02,45.4 L34.93,45.4 L34.83,45.4 C34.6093317,45.4201287 34.3914356,45.4637079 34.18,45.53 L34.11,45.53 L33.66,45.66 C33.3996224,45.1422943 33.0624802,44.6669238 32.66,44.25 L32.91,44.25 L33.17,44.25 L33.37,44.25 C35.7801884,43.6643304 37.4496045,41.4690482 37.37,38.99 L37.37,20.28 C37.37,16.87 35.44,13.98 33.82,12.16 C33.4332436,11.7026198 32.8688355,11.4331605 32.27,11.42 C31.6653423,11.4325889 31.0945433,11.7016279 30.7,12.16 C30.6,12.26 30.49,12.4 30.37,12.54 L30.37,11.94 C30.37,6.57 26.31,0.56 20.87,0.56 C15.43,0.56 11.37,6.56 11.37,11.94 L11.37,12.59 C11.25,12.43 11.11,12.27 11,12.14 C10.6006083,11.6780457 10.0206654,11.4117826 9.41,11.41 C8.79933457,11.4117826 8.21939166,11.6780457 7.82,12.14 C6.82,13.3 4.37,16.43 4.37,20.28 L4.37,39.17 C4.36219186,40.6513891 4.97942457,42.0673935 6.07,43.07 C6.97405758,43.8950181 8.15611203,44.3485556 9.38,44.34 C9.55319035,44.3499567 9.72680965,44.3499567 9.9,44.34 L10.09,44.34 L10.15,44.34 C9.53513455,45.0801203 9.11873393,45.9645415 8.94,46.91 L8.81,46.91 C5.4962915,46.91 2.81,49.5962915 2.81,52.91 C2.80700808,53.591297 2.92204156,54.2679646 3.15,54.91 C1.72774694,56.0567247 0.89763854,57.7830564 0.89,59.61 C0.889394719,60.5552087 1.11211058,61.4871889 1.54,62.33 L3.33,61.44 C2.49749816,59.8209532 2.86330055,57.8439763 4.22,56.63 C4.58556773,57.0385395 5.00234521,57.3981782 5.46,57.7 L6.49,56 C5.97551089,55.6720479 5.53595045,55.2393024 5.2,54.73 C4.90157067,54.1735705 4.74688704,53.5513986 4.75,52.92 C4.75,50.710861 6.540861,48.92 8.75,48.92 C8.88647346,48.909723 9.02352654,48.909723 9.16,48.92 L9.59,48.99 L9.64,48.99 C10.6644788,49.2248517 11.5553568,49.8534955 12.12,50.74 L13.81,49.67 C13.0984391,48.5665465 12.0445664,47.7269612 10.81,47.28 C11.0730459,45.6853897 12.3638843,44.4599101 13.97,44.28 L16.88,44.28 L18.88,46.28 L23.76,46.28 L25.76,44.28 L26.84,44.28 C27.4305636,44.4904175 28.0455025,44.6248303 28.67,44.68 C30.032218,44.6856451 31.2745763,45.4597001 31.88,46.68 C30.2329043,47.905465 29.2615607,49.8370299 29.26,51.89 L31.26,51.89 C31.2629549,50.2508317 32.155042,48.7423239 33.59,47.95 L33.84,47.82 C34.0907904,47.7027674 34.3519073,47.6090331 34.62,47.54 C34.8101046,47.4879854 35.0040517,47.4512023 35.2,47.43 L35.38,47.43 L35.71,47.43 L35.71,45.43 L35.21,45.43 L35.17,45.4 Z M4.36,55.17 L4.54,55.07 L4.36,55.17 Z M13.36,15.79 L13.36,11.94 C13.36,7.61 16.64,2.56 20.86,2.56 C25.08,2.56 28.36,7.61 28.36,11.94 L28.36,35.53 L26.36,33.81 L26.36,24.27 C26.4256677,21.5952154 25.6719811,18.964291 24.2,16.73 C23.4724864,15.9336838 22.4436081,15.4800531 21.365,15.4800531 C20.2863919,15.4800531 19.2575136,15.9336838 18.53,16.73 C17.0550793,18.9634169 16.2979325,21.5942403 16.36,24.27 L16.36,33.81 L13.36,36.39 L13.36,15.79 Z M9.36,39.79 L9.36,42.32 C8.62258491,42.3210818 7.91060306,42.0505287 7.36,41.56 C6.7015396,40.933758 6.33834091,40.0584492 6.36,39.15 L6.36,20.28 C6.52200742,17.7380794 7.56111971,15.3311561 9.3,13.47 C9.3,13.47 9.37,13.41 9.4,13.41 C9.43,13.41 9.46,13.41 9.5,13.47 C10.2342419,14.3112704 10.8591955,15.241981 11.36,16.24 L11.36,38.1 L9.36,39.79 Z M31.36,42.25 L24.92,42.25 L22.92,44.25 L19.76,44.25 L17.76,42.25 L11.34,42.25 L11.34,40.74 L18.34,34.74 L18.34,24.27 C18.2870371,21.9834088 18.928589,19.7344907 20.18,17.82 C20.8908097,17.3676774 21.7991903,17.3676774 22.51,17.82 C23.7584659,19.7353601 24.396559,21.984377 24.34,24.27 L24.34,34.73 L30.34,39.88 L31.34,40.73 L31.36,42.25 Z M30.36,37.25 L30.36,16.25 C30.8368049,15.2621667 31.445716,14.3437538 32.17,13.52 L32.24,13.44 L32.32,13.51 C33.45,14.79 35.32,17.37 35.32,20.3 L35.32,39 C35.3776813,40.3722879 34.5818742,41.6376212 33.32,42.18 L33.32,39.81 L30.36,37.25 Z" id="Shape"></path>
            <path d="M42.2,53.63 C42.3662248,53.061544 42.4504081,52.4722607 42.45,51.88 C42.395302,48.25909 39.4413184,45.3541166 35.82,45.3599911 L35.82,47.36 C37.0461296,47.3626337 38.2206956,47.8536174 39.0839408,48.724369 C39.947186,49.5951207 40.427982,50.7738936 40.42,52 C40.4220313,52.4436762 40.357996,52.8851827 40.23,53.31 L40.23,53.42 L40.23,53.48 C39.8614013,54.4721881 39.1526831,55.3013883 38.23,55.82 L39.23,57.55 C40.0825772,57.0536148 40.8109775,56.3696709 41.36,55.55 C42.5,56.47 43.36,57.97 43.17,59.01 L45.17,59.34 C45.43,57.4 44.11,55 42.2,53.63 Z" id="Shape"></path>
            <path d="M31.22,56.92 L29.22,56.92 C29.2255067,60.5186132 32.1413868,63.4344933 35.74,63.44 L35.74,61.44 C33.2459545,61.4345004 31.2254996,59.4140455 31.22,56.92 Z" id="Shape"></path>
            <path d="M17.68,50.73 L17.55,52.73 C18.6993274,52.8172758 19.7721625,53.3393889 20.55,54.19 C19.6596395,55.3330285 19.1773676,56.7411215 19.18,58.19 L21.18,58.19 C21.1854996,55.6959545 23.2059545,53.6754996 25.7,53.67 L25.7,51.67 C24.3806548,51.6630297 23.0903313,52.0571015 22,52.8 C20.8772646,51.5835312 19.331542,50.8428724 17.68,50.73 Z" id="Shape"></path>
        </g>
    </g>
</svg>