<?xml version="1.0" encoding="UTF-8"?>
<svg width="83px" height="83px" viewBox="0 0 83 83" version="1.1" xmlns="http://www.w3.org/2000/svg" xmlns:xlink="http://www.w3.org/1999/xlink">
    <!-- Generator: sketchtool 50.2 (55047) - http://www.bohemiancoding.com/sketch -->
    <title>78A3BD04-BEAC-466D-B796-6A1C4553575F</title>
    <desc>Created with sketchtool.</desc>
    <defs></defs>
    <g id="Page-1" stroke="none" stroke-width="1" fill="none" fill-rule="evenodd">
        <g id="hp:-suppliers" transform="translate(-948.000000, -1768.000000)">
            <g id="hp/card-copy-3" transform="translate(840.000000, 1697.000000)">
                <g id="icon" transform="translate(107.000000, 70.000000)">
                    <rect id="Background" x="0" y="0" width="85.3300018" height="85.3300018"></rect>
                    <g id="noun_timing_1822086" transform="translate(1.333281, 1.333281)" fill="#000000" fill-rule="nonzero">
                        <path d="M41.3317196,11.9995315 C25.1319995,11.9995315 11.9995315,25.1319995 11.9995315,41.3317196 C11.9995315,57.5314398 25.1319995,70.6639078 41.3317196,70.6639078 C57.5314398,70.6639078 70.6639078,57.5314398 70.6639078,41.3317196 C70.6639078,33.5523397 67.5735611,26.0915828 62.0727088,20.5907305 C56.5718564,15.0898782 49.1110996,11.9995315 41.3317196,11.9995315 Z M41.3317196,67.9973452 C26.6047013,67.9973452 14.6660941,56.058738 14.6660941,41.3317196 C14.6660941,26.6047013 26.6047013,14.6660941 41.3317196,14.6660941 C56.058738,14.6660941 67.9973452,26.6047013 67.9973452,41.3317196 C67.9973452,56.058738 56.058738,67.9973452 41.3317196,67.9973452 Z" id="Shape"></path>
                        <polygon id="Shape" points="39.9984384 39.9984384 22.6657817 39.9984384 22.6657817 42.6650009 42.6650009 42.6650009 42.6650009 22.6657817 39.9984384 22.6657817"></polygon>
                        <circle id="Oval" cx="41.3317196" cy="18.6659379" r="1.33328128"></circle>
                        <circle id="Oval" cx="41.3317196" cy="63.9975014" r="1.33328128"></circle>
                        <circle id="Oval" cx="63.9975014" cy="41.3317196" r="1.33328128"></circle>
                        <circle id="Oval" cx="18.6659379" cy="41.3317196" r="1.33328128"></circle>
                        <path d="M9.42629864,56.8377809 L7.89302517,60.6909638 C-1.38247366,44.5708619 2.13274358,24.1310319 16.2606773,12.035824 C30.3886109,-0.0593838964 51.1259897,-0.382688601 65.6241045,11.2662268 L67.3040389,9.18630801 C51.7818629,-3.30407408 29.5581806,-2.94333384 14.4495692,10.0442547 C-0.659042197,23.0318432 -4.35207617,44.9495002 5.66644543,62.170906 L1.59993753,61.3309388 L1.06662502,63.9975014 L8.82632206,65.5441077 L11.9062018,57.8510747 L9.42629864,56.8377809 Z" id="Shape"></path>
                        <circle id="Oval" cx="11.9995315" cy="67.9973452" r="1.33328128"></circle>
                        <path d="M76.9969938,20.4925333 L80.9968377,21.3058348 L81.5301502,18.6392723 L73.7704531,17.092666 L70.6905734,24.785699 L73.1704766,25.7723271 L74.70375,21.9191442 C83.9792489,38.0392461 80.4640316,58.4790762 66.336098,70.574284 C52.2081643,82.6694919 31.4707855,82.9927966 16.9726707,71.3438812 L15.2927363,73.4238 C30.8015949,85.9568683 53.0475008,85.6304629 68.1819769,72.6477771 C83.316453,59.6650912 87.0241643,37.727914 76.9969938,20.4925333 Z" id="Shape"></path>
                        <circle id="Oval" cx="70.6639078" cy="14.6660941" r="1.33328128"></circle>
                    </g>
                </g>
            </g>
        </g>
    </g>
</svg>