<?xml version="1.0" encoding="UTF-8"?>
<svg width="83px" height="83px" viewBox="0 0 83 83" version="1.1" xmlns="http://www.w3.org/2000/svg" xmlns:xlink="http://www.w3.org/1999/xlink">
    <!-- Generator: sketchtool 50.2 (55047) - http://www.bohemiancoding.com/sketch -->
    <title>B3E17B19-262E-4CCB-8A6B-24EB42C2049F</title>
    <desc>Created with sketchtool.</desc>
    <defs></defs>
    <g id="Page-1" stroke="none" stroke-width="1" fill="none" fill-rule="evenodd">
        <g id="hp:-suppliers" transform="translate(-598.000000, -1768.000000)">
            <g id="hp/card-copy-2" transform="translate(490.000000, 1697.000000)">
                <g id="icon" transform="translate(107.000000, 70.000000)">
                    <rect id="Background" x="0" y="0" width="85.3300018" height="85.3300018"></rect>
                    <g id="noun_budget-spending_1822093" transform="translate(1.333281, 1.333281)" fill="#000000" fill-rule="nonzero">
                        <path d="M71.0905578,31.905421 L67.8373515,26.0256506 L65.4907764,27.3589318 L67.4773655,30.9321257 C63.0583644,29.8548871 58.5665932,29.1018025 54.0378902,28.6788803 C53.5385177,22.9126753 52.4529545,17.2123517 50.7980167,11.6662112 L54.1045543,13.2128175 L55.2245106,10.7862455 L49.4914011,8.11968299 C47.3848166,3.133211 44.65159,0 41.3317196,0 C34.5053195,0 30.1588225,13.2128175 28.6255491,28.6255491 C28.1189022,28.6255491 27.5989225,28.7188787 27.0922756,28.7855428 C24.910208,23.4953368 19.2961179,20.4821161 13.6813445,21.5875651 C8.06657103,22.6930142 4.01369681,27.6094883 3.99984384,33.332032 C4.00280944,33.9801949 4.06079315,34.6269362 4.1731704,35.2652898 C1.41327816,37.0918852 0,39.1318055 0,41.3317196 C0,48.1581198 13.2128175,52.5046168 28.6255491,54.0378902 C30.1588225,69.4506218 34.5053195,82.6634393 41.3317196,82.6634393 C47.4381479,82.6634393 50.7580183,72.2905109 52.3046246,65.3307827 C52.6512777,65.3307827 52.984598,65.3307827 53.3312511,65.3307827 C59.9584094,65.3307827 65.3307827,59.9584094 65.3307827,53.3312511 C65.3307827,52.984598 65.3307827,52.6512777 65.3307827,52.3046246 C72.3438422,50.7580183 82.6634393,47.4381479 82.6634393,41.3317196 C82.6634393,37.3318758 78.050286,34.1320007 71.0905578,31.905421 Z M41.3317196,2.66656256 C43.2383119,2.66656256 45.224901,4.94647354 46.9714994,8.99964863 L44.1716088,14.0127862 L46.4915182,15.3460675 L48.1847854,12.3061862 C49.7969153,17.5506179 50.8603495,22.9482167 51.3579949,28.412224 C47.998126,28.132235 44.6782556,27.9989069 41.3317196,27.9989069 C37.9851836,27.9989069 34.5719836,28.132235 31.3054444,28.3855584 C32.9320476,12.7595018 37.3318758,2.66656256 41.3317196,2.66656256 Z M51.9979699,41.3317196 L51.9979699,41.4117165 C46.4306493,42.0365831 42.0365831,46.4306493 41.4117165,51.9979699 L41.3317196,51.9979699 C37.7185274,51.9979699 34.2919945,51.8513089 31.0654538,51.5979855 C30.8121303,48.3714448 30.6654694,44.9315791 30.6654694,41.3317196 C30.6654694,37.7318602 30.8121303,34.3053273 31.0654538,31.0787866 C34.398657,30.8121303 37.8251899,30.6654694 41.3317196,30.6654694 C44.8382494,30.6654694 48.3714448,30.8121303 51.5979855,31.0654538 C51.8513089,34.2919945 51.9979699,37.7185274 51.9979699,41.3317196 Z M15.9993753,23.999063 C21.1538318,23.999063 25.3323443,28.1775755 25.3323443,33.332032 C25.3323443,38.4864884 21.1538318,42.6650009 15.9993753,42.6650009 C10.8449189,42.6650009 6.66640639,38.4864884 6.66640639,33.332032 C6.66640639,28.1775755 10.8449189,23.999063 15.9993753,23.999063 Z M2.66656256,41.3317196 C2.88565294,39.9341855 3.71667564,38.707205 4.93314073,37.9851836 C7.14385369,43.2579721 12.7677231,46.2386622 18.3722943,45.1080291 C23.9768656,43.9773959 28.0053047,39.049506 27.9989069,33.332032 C27.9953031,32.6794803 27.937327,32.0283638 27.8255803,31.3854413 L28.3855584,31.3854413 C28.132235,34.6653132 27.9989069,37.9985164 27.9989069,41.3317196 C27.9989069,44.6649228 28.132235,47.998126 28.3855584,51.3579949 C12.7595018,49.7313917 2.66656256,45.3315635 2.66656256,41.3317196 Z M41.3317196,79.9968767 C37.3318758,79.9968767 32.9320476,69.9039374 31.3054444,54.2778809 C34.611982,54.5312043 37.9718508,54.6645324 41.3317196,54.6645324 L41.4117165,54.6645324 C41.9400227,59.3671331 45.182795,63.3200776 49.6913933,64.7574717 C47.6248073,74.0504422 44.3982666,79.9968767 41.3317196,79.9968767 Z M53.3312511,62.6642201 C48.1767947,62.6642201 43.9982822,58.4857076 43.9982822,53.3312511 C43.9982822,48.1767947 48.1767947,43.9982822 53.3312511,43.9982822 C58.4857076,43.9982822 62.6642201,48.1767947 62.6642201,53.3312511 C62.6642201,58.4857076 58.4857076,62.6642201 53.3312511,62.6642201 Z M64.7574717,49.6913933 C63.3200776,45.182795 59.3671331,41.9400227 54.6645324,41.4117165 L54.6645324,41.3317196 C54.6645324,37.9851836 54.5312043,34.6653132 54.2778809,31.3054444 C58.6068157,31.729628 62.8983879,32.473857 67.1173796,33.5320242 L63.237531,36.1985867 L64.7574717,38.385168 L70.4239171,34.3853242 C76.490347,36.465243 79.9968767,38.958479 79.9968767,41.3317196 C79.9968767,44.3982666 74.0504422,47.6248073 64.7574717,49.6913933 Z" id="Shape"></path>
                        <path d="M17.6793098,17.3326566 C18.0161431,17.3314934 18.3400532,17.202882 18.585941,16.9726707 C18.838348,16.722325 18.9803234,16.3815438 18.9803234,16.026041 C18.9803234,15.6705381 18.838348,15.329757 18.585941,15.0794113 C18.0659114,14.5624667 17.2260441,14.5624667 16.7060144,15.0794113 C16.3368706,15.4666222 16.2349165,16.0369831 16.447056,16.5281005 C16.6591954,17.0192179 17.1443439,17.3359783 17.6793098,17.3326566 Z" id="Shape"></path>
                        <path d="M31.7320944,73.4238 C31.6104107,73.2990866 31.4654615,73.199434 31.3054444,73.1304781 C31.0547392,73.045144 30.7828465,73.045144 30.5321413,73.1304781 L30.2788178,73.1304781 L30.05216,73.2504734 C29.9768876,73.2974966 29.9094122,73.3559753 29.8521678,73.4238 C29.7234976,73.5421006 29.6232261,73.6879501 29.5588459,73.85045 C29.4916712,74.0157587 29.4555141,74.1920248 29.4521834,74.3704297 C29.45429,74.5446593 29.4905273,74.7167864 29.5588459,74.8770766 C29.6232261,75.0395766 29.7234976,75.1854261 29.8521678,75.3037266 C30.3721975,75.8206712 31.2120648,75.8206712 31.7320944,75.3037266 C31.8568078,75.1820429 31.9564604,75.0370937 32.0254163,74.8770766 C32.0891682,74.7158678 32.1208697,74.5437735 32.118746,74.3704297 C32.1202796,74.1928043 32.0886271,74.0164547 32.0254163,73.85045 C31.9564604,73.690433 31.8568078,73.5454838 31.7320944,73.4238 Z" id="Shape"></path>
                        <path d="M15.9993753,64.9974623 C15.7469683,65.247808 15.604993,65.5885892 15.604993,65.944092 C15.604993,66.2995949 15.7469683,66.6403761 15.9993753,66.8907217 C16.2509906,67.140294 16.5916149,67.2794223 16.9460051,67.2773733 C17.302319,67.2758941 17.6432159,67.1318532 17.8926348,66.8773889 C18.4117622,66.3545798 18.4087775,65.5099233 17.8859684,64.9907959 C17.3631592,64.4716685 16.5185027,64.4746532 15.9993753,64.9974623 Z" id="Shape"></path>
                        <path d="M19.9992192,68.6906515 C19.6045981,69.2870383 19.7507652,70.0885496 20.3305018,70.5072482 C20.9102384,70.9259469 21.7170603,70.8127054 22.1591349,70.2505906 C22.36713,69.9627835 22.451722,69.6038948 22.3941561,69.2534936 C22.3365902,68.9030923 22.1416228,68.5901312 21.8524802,68.3839968 C21.2553643,67.9598106 20.4278718,68.0967338 19.9992192,68.6906515 Z" id="Shape"></path>
                        <path d="M26.3456381,71.1172234 C26.0277804,70.9558034 25.6585167,70.9284006 25.3203142,71.0411347 C24.9821117,71.1538689 24.7031425,71.3973494 24.5457083,71.7172 C24.2184096,72.37626 24.4869361,73.1758722 25.1456849,73.5037969 C25.3324179,73.5963215 25.5373022,73.6464043 25.7456615,73.6504578 C26.2525175,73.6539853 26.7175362,73.3698072 26.9456146,72.9171531 C27.1070346,72.5992954 27.1344375,72.2300318 27.0217033,71.8918293 C26.9089691,71.5536268 26.6654887,71.2746576 26.3456381,71.1172234 Z" id="Shape"></path>
                        <path d="M12.5728425,60.7309622 C12.1077543,61.0675207 11.9103213,61.6640013 12.0827632,62.21158 C12.2552051,62.7591587 12.7587992,63.1348738 13.3328128,63.1442014 C13.6167289,63.1413429 13.8923187,63.0479226 14.1194487,62.8775451 C14.5371256,62.6097155 14.7715277,62.1321043 14.7278628,61.6378574 C14.684198,61.1436105 14.3696898,60.7144935 13.9115255,60.5240412 C13.4533611,60.3335889 12.9273368,60.4133089 12.5461768,60.7309622 L12.5728425,60.7309622 Z" id="Shape"></path>
                        <path d="M9.87961427,55.9978137 C9.33055137,56.2790945 9.04616215,56.9003226 9.19205283,57.499743 C9.33794352,58.0991635 9.87600982,58.5202172 10.4929237,58.5177153 C10.7055224,58.5134569 10.9147069,58.4634345 11.1062331,58.3710544 C11.5301717,58.15194 11.805011,57.7233015 11.8272217,57.2466027 C11.8494325,56.7699039 11.6156402,56.3175668 11.2139123,56.0599823 C10.8121844,55.8023979 10.3035529,55.7786993 9.87961427,55.9978137 Z" id="Shape"></path>
                        <path d="M9.61295802,52.6246121 C9.67670986,52.4634033 9.70841144,52.291309 9.70628771,52.1179652 C9.70841144,51.9446214 9.67670986,51.7725271 9.61295802,51.6113183 C9.44115105,51.2013444 9.07632527,50.9039588 8.64013348,50.818326 C8.2039417,50.7326933 7.75376226,50.8700779 7.43970953,51.1846683 C7.31103934,51.3029688 7.2107678,51.4488183 7.14638765,51.6113183 C7.07806902,51.7716085 7.04183172,51.9437356 7.03972515,52.1179652 C7.04183172,52.2921947 7.07806902,52.4643219 7.14638765,52.6246121 C7.21062366,52.7910551 7.31077599,52.9412836 7.43970953,53.0645949 C7.56139328,53.1893083 7.70634249,53.2889609 7.86635954,53.3579168 C8.02756835,53.4216686 8.19966264,53.4533702 8.37300643,53.4512465 C8.55082308,53.4551305 8.72761962,53.4233978 8.89298613,53.3579168 C9.0577597,53.2904988 9.2073625,53.1907636 9.33296895,53.0645949 C9.45278462,52.9365728 9.54773052,52.7873721 9.61295802,52.6246121 Z" id="Shape"></path>
                        <path d="M75.2370626,51.1713355 C74.8566673,50.78841 74.2829267,50.6726091 73.783786,50.8780136 C73.6155764,50.9387955 73.4646055,51.0394427 73.3438031,51.1713355 C73.2238732,51.2941978 73.1288024,51.4390677 73.0638141,51.5979855 C72.9891752,51.7562185 72.9526449,51.9297372 72.9571516,52.1046324 C72.9532675,52.282449 72.9850002,52.4592456 73.0504813,52.6246121 C73.1194371,52.7846291 73.2190897,52.9295783 73.3438031,53.0512621 C73.4694096,53.1774308 73.6190124,53.277166 73.783786,53.344584 C73.9449948,53.4083358 74.1170891,53.4400374 74.2904328,53.4379136 C74.644823,53.4399626 74.9854473,53.3008344 75.2370626,53.0512621 C75.3569925,52.9283997 75.4520633,52.7835299 75.5170516,52.6246121 C75.5870976,52.4601864 75.6233705,52.283356 75.6237141,52.1046324 C75.6222414,51.7548595 75.4833785,51.4196733 75.2370626,51.1713355 Z" id="Shape"></path>
                        <path d="M60.7442951,68.437328 C60.2773507,68.775365 60.0805359,69.3752101 60.256447,69.924174 C60.4323581,70.4731378 60.9411501,70.8468769 61.5175982,70.8505671 C61.7954659,70.8487724 62.0658296,70.760205 62.2909013,70.5972437 C62.7245355,70.3404217 62.9762983,69.8610384 62.9415946,69.3582545 C62.9068908,68.8554705 62.5916522,68.4152234 62.1268451,68.2204147 C61.662038,68.0256059 61.1271089,68.1095329 60.7442951,68.437328 Z" id="Shape"></path>
                        <path d="M64.7708045,65.024128 C64.387844,65.4048166 64.2723183,65.9789056 64.4782189,66.4780926 C64.6841195,66.9772795 65.1707839,67.3029821 65.7107678,67.3029821 C66.2507518,67.3029821 66.7374161,66.9772795 66.9433167,66.4780926 C67.1492173,65.9789056 67.0336917,65.4048166 66.6507311,65.024128 C66.1307015,64.5071833 65.2908342,64.5071833 64.7708045,65.024128 Z" id="Shape"></path>
                        <path d="M68.2106702,61.0376169 C68.0013054,61.3237852 67.9145543,61.6815633 67.9695983,62.0318433 C68.0246423,62.3821233 68.216947,62.6960497 68.5039921,62.9042107 C68.7311221,63.0745882 69.0067119,63.1680085 69.290628,63.170867 C69.915904,63.1645903 70.4528116,62.724609 70.5818354,62.1127574 C70.7108591,61.5009059 70.3973301,60.8815894 69.8278306,60.6233653 C69.2583311,60.3651412 68.5858862,60.5373946 68.2106702,61.0376169 Z" id="Shape"></path>
                        <path d="M72.783825,55.9978137 C72.1318422,55.6666221 71.3347608,55.922402 70.9972281,56.5711247 C70.834863,56.8873449 70.8054953,57.2553094 70.9156486,57.5932796 C71.0258019,57.9312498 71.2663549,58.2112402 71.5838718,58.3710544 C71.7696277,58.4662291 71.9751336,58.5164639 72.1838484,58.5177153 C72.7982775,58.514074 73.3306545,58.0910037 73.4729714,57.4932728 C73.6152883,56.8955418 73.3306873,56.277953 72.783825,55.9978137 Z" id="Shape"></path>
                        <path d="M56.2244715,71.1572218 C55.6776093,71.4373611 55.3930082,72.05495 55.5353251,72.6526809 C55.677642,73.2504118 56.210019,73.6734821 56.8244481,73.6771235 C57.0320945,73.6800122 57.2375449,73.6343565 57.4244247,73.5437953 C58.0834587,73.2124374 58.3490926,72.4095661 58.0177347,71.7505321 C57.6863769,71.091498 56.8835056,70.825864 56.2244715,71.1572218 Z" id="Shape"></path>
                        <path d="M52.6646105,73.4637985 L52.4646183,73.3304703 C52.3180865,73.2352315 52.1554414,73.1674627 51.9846371,73.1304781 C51.5496728,73.0433824 51.0998766,73.1783212 50.7846839,73.4904641 C50.5302196,73.7398829 50.3861787,74.0807798 50.3846995,74.4370938 C50.3861787,74.7934077 50.5302196,75.1343046 50.7846839,75.3837235 C51.0330217,75.6300394 51.368208,75.7689023 51.7179808,75.7703751 C52.1637709,75.7726124 52.5811831,75.5519028 52.8303175,75.1822194 C53.079452,74.812536 53.1273404,74.3427996 52.9579324,73.9304469 C52.8881328,73.7589755 52.7888612,73.6010434 52.6646105,73.4637985 Z" id="Shape"></path>
                        <path d="M57.8110762,12.1595253 C58.5474272,12.1595253 59.1443575,11.5625949 59.1443575,10.826244 C59.1428847,10.4764711 59.0040219,10.1412849 58.7577059,9.89294709 C58.5073603,9.64054007 58.1665791,9.49856472 57.8110762,9.49856472 C57.4555734,9.49856472 57.1147922,9.64054007 56.8644465,9.89294709 C56.6181306,10.1412849 56.4792677,10.4764711 56.477795,10.826244 C56.475746,11.1806341 56.6148743,11.5212584 56.8644465,11.7728737 C57.1160618,12.022446 57.4566861,12.1615742 57.8110762,12.1595253 Z" id="Shape"></path>
                        <path d="M66.304078,18.6659379 C66.6519679,18.6680278 66.9868959,18.5340566 67.2373749,18.2926191 C67.7549125,17.7708202 67.7526105,16.9286224 67.2322281,16.4096604 C66.7118457,15.8906985 65.8696447,15.8906985 65.3492623,16.4096604 C64.8288799,16.9286224 64.8265779,17.7708202 65.3441155,18.2926191 C65.6011771,18.5406245 65.9470021,18.675112 66.304078,18.6659379 Z" id="Shape"></path>
                        <path d="M72.4505047,27.3722646 C73.0452929,27.3710743 73.5673553,26.9760511 73.7301842,26.4039836 C73.8930131,25.8319162 73.6572213,25.2211831 73.1522115,24.9069548 C72.6472016,24.5927264 71.9951315,24.6510121 71.5538573,25.0498247 C71.1125831,25.4486372 70.9888454,26.091507 71.2505515,26.6256271 C71.4748807,27.0834639 71.9406644,27.373285 72.4505047,27.3722646 Z" id="Shape"></path>
                        <path d="M69.7172781,22.7591114 C69.9891448,22.7584678 70.2543178,22.674729 70.4772484,22.5191208 C71.0801521,22.0988209 71.2292392,21.2698961 70.8105687,20.6658598 C70.4450341,20.1524818 69.7699643,19.9651601 69.1921558,20.2167745 C68.6143473,20.4683889 68.2916297,21.0902106 68.4184725,21.7075301 C68.5453153,22.3248496 69.087071,22.7690449 69.7172781,22.7724442 L69.7172781,22.7591114 Z" id="Shape"></path>
                        <path d="M61.5042654,14.7860894 C61.7333697,14.963946 62.014222,15.0622443 62.3042341,15.0660784 C62.7215619,15.0692404 63.1162939,14.8768086 63.3708592,14.5460987 C63.588673,14.2639975 63.6844744,13.9064328 63.6368785,13.553221 C63.5892826,13.2000091 63.4022519,12.8805566 63.1175357,12.6661721 C62.528455,12.2206798 61.6897678,12.3370813 61.2442755,12.926162 C60.7987832,13.5152427 60.9151846,14.3539299 61.5042654,14.7994222 L61.5042654,14.7860894 Z" id="Shape"></path>
                        <path d="M73.210475,30.5188085 C72.9389544,31.1100899 73.133867,31.8109991 73.6716559,32.1772234 C74.2094448,32.5434478 74.9330296,32.4680184 75.3837235,31.9987507 C75.6300394,31.7504129 75.7689023,31.4152266 75.7703751,31.0654538 C75.7748817,30.8905586 75.7383515,30.7170399 75.6637126,30.5588069 C75.6026293,30.3939555 75.5071889,30.2439778 75.3837235,30.1188241 C75.1333778,29.8664171 74.7925966,29.7244417 74.4370938,29.7244417 C74.0815909,29.7244417 73.7408098,29.8664171 73.4904641,30.1188241 C73.3715477,30.2322782 73.2763733,30.3682417 73.210475,30.5188085 Z" id="Shape"></path>
                        <path d="M13.6661331,21.012513 C14.1652738,21.2179174 14.7390145,21.1021165 15.1194097,20.7191911 C15.2441231,20.5975073 15.3437757,20.4525581 15.4127316,20.2925411 C15.4764834,20.1313323 15.508185,19.959238 15.5060613,19.7858942 C15.5099453,19.6080775 15.4782126,19.431281 15.4127316,19.2659145 C15.2771422,18.938372 15.0166939,18.6783117 14.6889495,18.543211 C14.3612051,18.4081102 13.9931512,18.4090932 13.6661331,18.5459426 C13.5040967,18.6184161 13.3553706,18.7175668 13.2261503,18.8392645 C13.1062203,18.9621268 13.0111495,19.1069967 12.9461612,19.2659145 C12.8789865,19.4312231 12.8428294,19.6074893 12.8394987,19.7858942 C12.8409715,20.135667 12.9798343,20.4708532 13.2261503,20.7191911 C13.3517567,20.8453597 13.5013595,20.9450949 13.6661331,21.012513 Z" id="Shape"></path>
                        <path d="M21.6924864,14.0927831 C21.9583996,14.0933769 22.2184161,14.0144433 22.4391239,13.8661253 C22.8840863,13.5614425 23.1016891,13.0187153 22.9904589,12.4910308 C22.8792287,11.9633463 22.4610717,11.5546304 21.9309852,11.4554775 C21.4008986,11.3563247 20.8632812,11.5862626 20.5688375,12.0380656 C20.2743938,12.4898687 20.2811134,13.0745555 20.5858629,13.5194722 C20.8372204,13.8818321 21.2514968,14.0964572 21.6924864,14.0927831 Z" id="Shape"></path>
                        <path d="M26.1323131,11.4928846 C26.3354649,11.4937161 26.5361203,11.4481126 26.7189568,11.3595565 C27.3599172,11.0274379 27.6201259,10.245511 27.3059796,9.59555326 C26.9918334,8.94559549 26.2174534,8.66371975 25.5590021,8.95965019 C25.2402992,9.11475036 24.9964702,9.39036757 24.8813888,9.72560465 C24.7663074,10.0608417 24.7894462,10.4281046 24.9456927,10.7462471 C25.1678958,11.1997833 25.6272854,11.4888375 26.1323131,11.4928846 Z" id="Shape"></path>
                        <path d="M16.0179286,33.9730508 C16.52481,33.9713003 17.0122441,33.7777603 17.3822667,33.4313283 C17.7620998,33.0545972 17.9757504,32.5417749 17.9757504,32.0067988 C17.9757504,31.4718227 17.7620998,30.9590004 17.3822667,30.5822693 C16.5997035,29.8043486 15.3358347,29.8043486 14.5532715,30.5822693 C13.9977678,31.1649611 13.8443429,32.023265 14.1635796,32.7623198 C14.4828163,33.5013746 15.2128888,33.9780494 16.0179286,33.9730508 Z" id="Shape"></path>
                        <path d="M22.0181047,34.6396914 C22.5249862,34.6379409 23.0124202,34.4444009 23.3824428,34.097969 C23.7622759,33.7212379 23.9759265,33.2084156 23.9759265,32.6734394 C23.9759265,32.1384633 23.7622759,31.625641 23.3824428,31.2489099 C22.5998796,30.4709892 21.3360108,30.4709892 20.5534476,31.2489099 C19.9979439,31.8316017 19.844519,32.6899056 20.1637557,33.4289604 C20.4829924,34.1680153 21.2130649,34.64469 22.0181047,34.6396914 Z" id="Shape"></path>
                        <path d="M47.350449,53.3056293 C47.8573304,53.3038788 48.3447645,53.1103388 48.7147871,52.7639069 C49.0946202,52.3871758 49.3082708,51.8743535 49.3082708,51.3393773 C49.3082708,50.8044012 49.0946202,50.2915789 48.7147871,49.9148478 C47.9322239,49.1369271 46.6683551,49.1369271 45.8857919,49.9148478 C45.3302882,50.4975396 45.1768633,51.3558435 45.4961,52.0948983 C45.8153367,52.8339532 46.5454092,53.3106279 47.350449,53.3056293 Z" id="Shape-Copy-3"></path>
                        <path d="M52.6835741,51.9723481 C53.1904556,51.9705975 53.6778896,51.7770576 54.0479122,51.4306256 C54.4277453,51.0538945 54.641396,50.5410722 54.641396,50.0060961 C54.641396,49.47112 54.4277453,48.9582976 54.0479122,48.5815666 C53.265349,47.8036459 52.0014802,47.8036459 51.218917,48.5815666 C50.6634133,49.1642584 50.5099884,50.0225622 50.8292251,50.761617 C51.1484618,51.5006719 51.8785343,51.9773467 52.6835741,51.9723481 Z" id="Shape-Copy-4"></path>
                        <path d="M30.9321257,9.58629239 C31.2818985,9.58481962 31.6170847,9.44595676 31.8654226,9.19964082 C32.1198868,8.95022198 32.2639278,8.60932506 32.2654069,8.25301111 C32.2639278,7.89669716 32.1198868,7.55580025 31.8654226,7.30638141 C31.3453929,6.7894368 30.5055256,6.7894368 29.985496,7.30638141 C29.7359237,7.55799669 29.5967955,7.89862097 29.5988444,8.25301111 C29.5988444,8.98936203 30.1957747,9.58629239 30.9321257,9.58629239 Z" id="Shape"></path>
                    </g>
                </g>
            </g>
        </g>
    </g>
</svg>